<?xml version="1.0" standalone="no"?>
<!DOCTYPE svg PUBLIC "-//W3C//DTD SVG 20010904//EN"
 "http://www.w3.org/TR/2001/REC-SVG-20010904/DTD/svg10.dtd">
<svg version="1.0" xmlns="http://www.w3.org/2000/svg"
 width="460.000000pt" height="460.000000pt" viewBox="0 0 460.000000 460.000000"
 preserveAspectRatio="xMidYMid meet">
<metadata>
Created by potrace 1.14, written by Peter Selinger 2001-2017
</metadata>
<g transform="translate(0.000000,460.000000) scale(0.100000,-0.100000)"
fill="#000000" stroke="none">
<path d="M1708 4593 c12 -2 27 -13 33 -24 5 -11 15 -19 22 -18 41 5 67 -2 67
-18 0 -11 3 -14 8 -7 13 20 37 21 61 3 15 -12 40 -19 69 -19 33 0 54 -7 79
-26 40 -30 140 -44 238 -32 60 7 121 2 140 -12 10 -7 36 -14 100 -26 17 -3 44
-12 60 -19 37 -16 105 -27 167 -27 31 0 46 -4 41 -11 -3 -5 -1 -7 4 -4 6 4 13
-1 16 -12 3 -13 17 -20 48 -24 24 -3 58 -13 75 -22 19 -9 47 -14 68 -11 20 2
38 1 41 -3 7 -13 58 -7 61 7 1 7 0 8 -3 2 -2 -5 -11 -10 -19 -10 -9 0 -12 5
-9 10 3 6 -1 17 -10 26 -12 12 -13 19 -4 30 7 9 7 14 1 14 -17 0 -21 -27 -6
-48 8 -12 10 -23 5 -27 -5 -3 -12 -1 -16 5 -4 6 -10 8 -15 5 -4 -3 -10 2 -13
9 -3 8 -1 16 4 18 5 2 11 13 12 25 0 12 4 20 8 17 4 -2 10 0 14 6 3 5 3 11 -2
11 -35 6 -53 5 -53 -2 0 -5 5 -9 11 -9 6 0 8 -9 4 -21 -4 -12 -8 -29 -10 -38
-2 -12 -11 -15 -36 -13 -18 1 -37 7 -43 11 -11 9 -85 27 -97 23 -4 -1 -9 7
-12 18 -4 15 3 22 29 32 19 6 34 19 34 27 0 12 -3 12 -12 3 -18 -18 -27 -15
-25 8 1 12 5 16 10 11 5 -5 16 -7 25 -4 12 5 14 1 10 -20 -3 -14 0 -29 6 -32
6 -3 1 -3 -11 -1 -15 3 -20 0 -16 -11 3 -7 8 -11 11 -9 3 3 12 0 20 -6 8 -7
35 -13 60 -14 28 -1 39 2 31 7 -11 7 -10 9 4 9 14 0 15 3 5 19 -7 11 -16 17
-20 15 -4 -3 -8 6 -8 20 0 14 5 26 11 26 5 0 7 -4 4 -10 -11 -17 5 -32 20 -20
16 13 80 -15 70 -30 -4 -6 -1 -10 4 -10 6 0 11 8 11 18 0 14 2 14 9 3 5 -8 7
-19 5 -26 -3 -7 4 -11 18 -10 13 1 24 9 26 17 4 22 49 29 58 9 4 -9 6 -23 5
-31 -1 -12 0 -12 7 -2 5 7 16 10 26 6 18 -7 18 -27 1 -66 -4 -11 -3 -18 4 -18
6 0 11 8 11 19 0 10 7 24 16 32 14 11 14 13 -1 21 -14 8 -14 11 0 24 19 20 56
9 48 -13 -4 -11 -3 -14 6 -9 6 4 34 10 61 13 46 5 50 4 50 -16 0 -14 6 -21 20
-21 11 0 20 4 20 10 0 5 -7 7 -15 4 -9 -4 -15 0 -15 10 0 12 5 14 24 6 17 -6
26 -5 28 2 3 7 12 9 22 5 10 -4 16 -13 13 -21 -4 -10 5 -16 26 -20 39 -7 166
8 195 23 11 6 36 11 56 11 19 0 38 5 41 10 4 6 12 10 18 9 7 -2 35 1 62 5 133
19 180 28 199 39 12 7 46 12 76 13 75 1 169 15 176 25 3 5 18 9 33 9 15 0 31
3 35 7 10 11 127 33 137 27 5 -3 9 2 9 11 0 12 -6 15 -22 11 l-23 -6 23 11
c17 9 22 21 22 51 l0 38 -1355 0 c-745 0 -1355 -2 -1355 -5 0 -9 44 -45 54
-45 6 0 4 5 -4 10 -11 8 -6 10 21 8 25 -1 35 -6 32 -14 -3 -9 7 -12 34 -11
101 4 141 -3 164 -28 13 -13 32 -25 41 -25 9 0 18 -5 20 -11 3 -9 14 -9 41 0
27 9 46 10 67 3 21 -8 30 -7 34 1 3 8 5 8 5 -1 1 -7 6 -10 11 -7 6 4 17 2 24
-4 17 -15 51 -15 105 -1 24 6 46 9 48 6 3 -2 -15 -9 -39 -14 -53 -12 -20 -14
40 -3 32 6 42 5 42 -5 0 -23 19 -25 47 -7 23 15 26 15 15 2 -7 -9 -10 -23 -6
-32 6 -17 72 -28 78 -12 3 6 7 7 13 0 4 -5 17 -12 28 -13 36 -7 30 -13 -10
-12 -22 0 -51 0 -65 -1 -40 -1 -113 12 -147 27 -17 8 -38 14 -48 14 -10 0 -14
5 -9 13 5 9 4 9 -5 1 -13 -12 -101 11 -101 27 0 4 -9 6 -20 4 -11 -2 -33 0
-49 5 -17 5 -33 4 -39 -2 -16 -16 -186 -11 -229 7 -30 13 -35 18 -23 26 13 9
13 10 0 8 -8 -1 -22 0 -30 2 -8 1 19 6 60 10 60 5 53 6 -39 3 -91 -3 -119 0
-145 13 -17 9 -38 16 -47 15 -9 -2 -29 3 -45 9 -16 7 -36 11 -45 10 -9 -1 -22
5 -29 14 -7 8 -22 14 -34 14 -20 -2 -20 -2 2 -6z m222 -13 c0 -5 -2 -10 -4
-10 -3 0 -8 5 -11 10 -3 6 -1 10 4 10 6 0 11 -4 11 -10z m410 -71 c0 -10 -49
-21 -60 -14 -6 4 -10 0 -11 -7 0 -10 -2 -10 -6 0 -2 6 -16 12 -29 12 -13 0
-24 4 -24 8 0 4 29 8 65 8 36 0 65 -3 65 -7z m239 8 c-2 -1 -12 -9 -22 -16
-15 -12 -17 -12 -11 3 3 9 13 16 22 16 8 0 13 -1 11 -3z m1925 -23 c4 -10 1
-15 -12 -13 -24 3 -72 -9 -105 -28 -15 -8 -34 -12 -42 -9 -8 3 -32 -1 -54 -9
-22 -8 -56 -11 -80 -8 -29 4 -55 -1 -92 -17 -41 -17 -75 -22 -158 -24 -58 -2
-81 -1 -49 1 33 2 61 10 68 18 7 9 29 15 51 15 21 0 41 5 44 10 4 6 13 7 23 1
9 -5 26 -5 37 0 11 4 41 8 67 8 26 1 49 4 51 9 3 4 30 6 61 5 32 -1 54 3 51 8
-4 5 1 6 9 3 9 -3 16 -1 16 5 0 6 8 11 18 12 13 0 81 22 88 28 1 0 5 -6 8 -15z
m46 4 c0 -4 -7 -8 -15 -8 -8 0 -15 4 -15 8 0 5 7 9 15 9 8 0 15 -4 15 -9z
m-2173 -4 c-3 -3 -12 -4 -19 -1 -8 3 -5 6 6 6 11 1 17 -2 13 -5z m353 -4 c8
-5 11 -12 7 -17 -5 -4 -12 -1 -16 6 -7 11 -10 11 -14 0 -4 -10 -6 -9 -6 4 -1
19 7 21 29 7z m26 -37 c-10 -10 -19 5 -10 18 6 11 8 11 12 0 2 -7 1 -15 -2
-18z m-101 -3 c3 -5 1 -10 -4 -10 -6 0 -11 5 -11 10 0 6 2 10 4 10 3 0 8 -4
11 -10z m95 -23 c13 -5 13 -6 0 -7 -8 -1 -23 -3 -32 -5 -24 -4 -32 11 -16 29
10 12 15 12 23 2 6 -7 17 -15 25 -19z m74 0 c-3 -9 -12 -17 -18 -17 -15 0 -36
20 -36 34 0 5 7 1 16 -10 12 -15 15 -16 10 -2 -3 9 0 19 7 21 18 7 29 -7 21
-26z m132 -44 c-3 -3 -16 -3 -30 1 -19 5 -24 11 -19 23 4 11 8 13 11 5 6 -18
32 -14 33 6 1 10 3 8 6 -6 3 -13 2 -26 -1 -29z m354 13 c0 -3 -4 -8 -10 -11
-5 -3 -10 -1 -10 4 0 6 5 11 10 11 6 0 10 -2 10 -4z m-380 -47 c0 -5 -4 -9 -8
-9 -5 0 -9 7 -9 15 0 8 4 12 9 9 4 -3 8 -9 8 -15z m30 6 c7 -9 8 -15 2 -15 -5
0 -12 7 -16 15 -3 8 -4 15 -2 15 2 0 9 -7 16 -15z m300 3 c0 -4 -4 -8 -9 -8
-6 0 -12 4 -15 8 -3 5 1 9 9 9 8 0 15 -4 15 -9z m585 4 c-9 -9 -63 -9 -76 -1
-9 6 3 9 33 7 26 -1 46 -4 43 -6z m-136 -13 c60 -2 62 -2 35 -14 -36 -15 -156
-28 -178 -19 -28 11 -18 33 17 37 17 2 39 2 47 0 8 -1 44 -3 79 -4z"/>
<path d="M4070 4410 c-18 -12 -2 -12 25 0 13 6 15 9 5 9 -8 0 -22 -4 -30 -9z"/>
<path d="M3998 4393 c7 -3 16 -2 19 1 4 3 -2 6 -13 5 -11 0 -14 -3 -6 -6z"/>
<path d="M3608 4339 c-6 -4 -18 -5 -27 -2 -14 4 -14 3 -1 -5 8 -6 18 -8 24 -5
5 4 35 6 65 5 58 0 53 4 -12 10 -20 2 -42 1 -49 -3z"/>
<path d="M4155 4390 l-20 -9 20 0 c11 0 29 4 40 9 l20 9 -20 0 c-11 0 -29 -4
-40 -9z"/>
<path d="M3070 4340 c0 -5 5 -10 10 -10 6 0 10 5 10 10 0 6 -4 10 -10 10 -5 0
-10 -4 -10 -10z"/>
<path d="M3135 4300 c-3 -5 -3 -10 2 -10 4 0 2 -4 -5 -9 -10 -6 -9 -10 7 -14
17 -4 21 -1 21 19 0 24 -14 32 -25 14z"/>
<path d="M3200 4293 c0 -13 6 -20 15 -19 9 1 15 5 15 9 0 4 -3 7 -6 6 -4 0
-11 5 -15 13 -6 9 -9 7 -9 -9z"/>
<path d="M3030 2705 c0 -8 2 -15 4 -15 2 0 6 7 10 15 3 8 1 15 -4 15 -6 0 -10
-7 -10 -15z"/>
<path d="M697 2363 c10 -7 7 -17 -12 -43 -22 -30 -24 -40 -19 -89 4 -31 13
-63 20 -72 20 -23 18 -25 -33 -39 -57 -15 -149 -56 -158 -70 -3 -6 -10 -40
-15 -78 -5 -37 -16 -98 -23 -137 -14 -65 -15 -67 -16 -27 -1 35 -4 43 -18 41
-10 -1 -22 -1 -28 0 -18 4 -199 0 -265 -6 -36 -2 -78 -5 -95 -6 l-30 -2 -3
-104 -3 -104 31 -26 c33 -27 34 -63 1 -60 -31 3 -34 -1 -16 -21 10 -11 26 -20
37 -20 10 0 18 -4 18 -9 0 -5 3 -16 6 -25 5 -12 -3 -17 -34 -22 -38 -6 -40 -8
-40 -44 -1 -34 2 -37 21 -34 22 5 22 4 0 -7 -13 -7 -23 -19 -23 -27 0 -12 3
-12 15 -2 8 7 21 10 29 7 9 -4 13 0 11 11 -4 28 6 34 26 16 11 -10 19 -12 19
-6 0 19 24 14 38 -9 9 -14 19 -18 35 -14 22 6 22 6 -1 -8 -12 -7 -19 -17 -15
-22 4 -4 0 -5 -9 -2 -11 4 -17 2 -15 -6 1 -6 -9 -13 -23 -14 -22 -2 -23 -2 -5
6 17 8 18 10 3 10 -10 1 -18 6 -18 12 0 6 -7 4 -15 -4 -8 -9 -24 -13 -35 -10
-17 5 -18 8 -8 22 12 14 11 15 -5 2 -14 -11 -15 -16 -5 -29 11 -13 10 -15 -4
-9 -12 4 -15 2 -11 -8 4 -11 10 -12 23 -5 26 14 34 12 22 -3 -8 -9 -8 -17 0
-27 8 -12 9 -12 4 3 -6 18 10 22 32 8 11 -7 11 -9 -2 -14 -20 -8 -21 -27 -2
-27 8 0 17 -4 21 -9 3 -6 -6 -8 -21 -5 -16 3 -23 1 -19 -6 3 -5 3 -10 -2 -10
-4 0 -18 -3 -30 -6 -15 -4 -23 -2 -23 6 0 7 7 10 16 6 8 -3 12 -2 9 4 -3 6
-12 10 -20 10 -16 0 -17 -71 -1 -82 7 -5 7 -8 -1 -8 -7 0 -13 -4 -13 -10 0 -5
15 -10 33 -10 17 0 39 -4 47 -9 8 -6 18 -7 23 -4 5 3 3 9 -4 14 -10 6 -8 9 9
9 13 0 20 -4 17 -10 -3 -5 1 -10 10 -10 10 0 15 -6 12 -13 -3 -8 1 -14 9 -14
9 0 13 6 9 14 -4 11 1 13 18 7 40 -13 52 -10 50 11 -1 12 6 26 16 32 14 9 20
7 31 -11 12 -18 11 -19 -2 -9 -17 15 -28 8 -28 -18 0 -15 4 -17 25 -9 19 7 23
6 18 -5 -3 -8 -11 -15 -19 -15 -8 0 -14 -4 -14 -10 0 -5 -4 -10 -10 -10 -5 0
-7 7 -4 15 4 8 1 15 -6 15 -6 0 -10 -10 -8 -22 2 -16 -5 -24 -32 -34 -19 -7
-30 -13 -25 -13 6 -1 3 -6 -5 -11 -23 -15 4 -12 35 4 15 8 34 12 42 9 8 -3 19
0 25 8 6 9 11 10 14 3 3 -6 13 -28 24 -48 11 -22 14 -35 7 -33 -7 2 -23 0 -37
-4 -23 -8 -23 -8 -7 5 14 10 15 15 5 19 -11 4 -10 7 1 15 19 14 -4 25 -26 14
-10 -5 -37 -13 -60 -17 -36 -6 -43 -4 -43 9 0 9 -6 16 -12 17 -7 0 -5 4 4 7
17 7 16 8 -2 19 -16 11 -18 10 -14 -1 3 -8 -4 -19 -16 -26 -13 -7 -20 -8 -16
-2 3 6 -2 13 -11 15 -14 4 -13 5 5 6 27 1 28 12 3 28 -15 9 -23 8 -40 -3 -13
-10 -21 -11 -21 -4 0 6 -5 8 -10 5 -8 -5 -7 -11 1 -21 10 -12 9 -13 -4 -8 -15
5 -17 -37 -17 -495 l0 -501 1920 0 c1481 0 1925 3 1939 12 15 9 26 9 43 1 26
-12 128 -15 128 -3 0 22 -32 78 -54 96 -22 17 -24 23 -13 33 24 19 79 -11 92
-50 7 -19 17 -35 23 -35 7 -1 22 -2 35 -3 12 0 34 -12 49 -26 24 -22 36 -25
103 -25 86 0 97 13 39 45 -38 20 -58 56 -49 86 11 33 -21 77 -113 156 -24 20
-31 33 -27 46 9 22 32 22 44 -1 9 -16 160 -112 176 -112 4 0 24 -14 46 -32 38
-30 40 -35 39 -83 -1 -27 -1 -62 -1 -77 l1 -28 90 0 90 0 0 293 c0 191 -4 297
-10 303 -8 8 -7 19 1 38 7 14 9 29 4 34 -4 4 -10 1 -12 -6 -3 -6 -9 -10 -14
-6 -16 10 -10 24 11 24 23 0 26 19 8 39 -11 11 -10 14 0 18 17 7 17 393 -1
393 -9 0 -8 3 1 8 21 14 15 251 -6 277 -16 18 -16 19 1 6 15 -12 17 -11 17 16
0 38 -45 75 -152 127 -43 20 -78 38 -78 40 0 1 13 1 29 -2 16 -2 32 1 35 7 5
8 -15 11 -66 10 -58 -1 -66 -3 -38 -9 39 -8 42 -8 -195 -16 -60 -2 -128 -6
-150 -10 -22 -3 -36 -3 -32 2 4 4 13 9 20 10 7 1 36 9 66 18 30 9 59 16 65 16
18 0 -8 -18 -34 -23 -14 -3 0 -4 30 -2 30 2 55 4 55 5 0 3 63 9 187 16 70 4
125 11 122 15 -3 5 -53 10 -112 11 l-107 2 85 5 85 6 -49 13 c-27 7 -46 15
-44 17 2 3 20 0 39 -5 44 -13 58 -12 39 1 -13 9 -13 10 0 6 8 -2 15 -10 15
-18 0 -7 9 -15 20 -17 11 -2 25 -9 32 -14 7 -5 18 -6 24 -2 7 4 9 3 5 -4 -4
-7 7 -12 31 -15 35 -3 34 -4 -10 -5 -49 -2 -87 -16 -87 -32 0 -5 24 -20 53
-34 28 -14 67 -38 85 -52 l32 -27 0 121 0 120 -50 7 c-27 4 -53 5 -57 2 -4 -3
-19 0 -33 6 -29 12 -90 15 -90 5 0 -6 -126 -2 -192 6 -16 2 -26 -1 -25 -8 1
-6 33 -14 72 -17 l70 -5 -72 -2 c-41 -1 -75 2 -78 8 -5 8 -11 7 -21 -1 -7 -6
-32 -9 -54 -7 -22 2 -40 0 -40 -4 0 -5 -11 -8 -24 -8 -14 0 -37 -5 -52 -10
-45 -18 -40 -2 7 20 24 11 36 18 27 16 -10 -3 -18 -3 -18 -1 0 7 64 39 73 37
5 -1 5 3 1 9 -5 9 -2 10 10 6 9 -4 15 -3 11 2 -3 5 7 14 22 19 19 7 22 11 10
11 -10 1 -31 -6 -46 -14 -16 -8 -32 -11 -36 -7 -5 4 -5 2 -2 -4 5 -9 -49 -53
-113 -89 -10 -6 -26 -17 -36 -25 -16 -14 -16 -13 -4 7 8 12 21 24 30 28 38 14
90 55 90 71 0 3 -7 1 -16 -7 -9 -7 -30 -14 -47 -15 -49 -2 -53 -4 -39 -13 11
-7 10 -9 -3 -14 -9 -4 -13 -3 -10 3 4 7 -17 8 -57 1 -4 0 -21 -21 -39 -46 -39
-54 -46 -53 -19 1 10 21 20 35 20 29 1 -5 5 0 11 13 5 13 14 20 19 17 6 -4 17
-1 25 5 12 10 15 10 15 -1 0 -7 17 4 38 24 38 37 69 52 39 19 -16 -18 -15 -18
16 -14 20 3 26 7 17 11 -24 10 -22 28 7 50 14 12 22 21 18 21 -7 0 -41 -25
-99 -73 -27 -21 -35 -24 -39 -13 -7 17 -1 22 66 60 26 15 47 29 47 32 0 11
-104 -52 -149 -90 -25 -22 -39 -31 -30 -21 9 11 22 31 29 45 12 22 11 23 -2
13 -8 -7 -18 -10 -22 -6 -4 4 -4 0 -1 -8 3 -9 -3 -23 -15 -34 -11 -10 -20 -24
-20 -31 0 -12 -39 -84 -45 -84 -2 0 1 15 6 32 5 18 9 34 9 36 0 2 4 0 10 -3 6
-4 10 5 10 20 0 14 7 28 15 31 8 4 15 13 15 21 0 12 -2 12 -13 1 -7 -7 -18
-22 -25 -33 -11 -19 -11 -19 -12 3 0 12 6 25 14 28 8 3 17 11 19 18 5 12 0 14
-40 18 -10 0 -21 6 -25 12 -4 6 -8 -2 -9 -19 0 -16 -9 -48 -19 -70 l-19 -40 0
35 c-1 19 4 51 9 70 7 23 7 36 0 38 -5 2 -10 16 -11 30 0 23 -2 22 -12 -11 -7
-22 -16 -35 -20 -30 -5 4 -8 4 -7 -2 1 -5 2 -26 1 -45 -1 -27 -4 -32 -12 -20
-8 12 -10 12 -8 -5 3 -30 -11 -72 -29 -87 -13 -11 -14 -10 -4 7 14 25 56 215
49 222 -3 2 -11 -22 -17 -54 -7 -32 -16 -65 -21 -73 -11 -19 -11 -5 0 43 11
46 -2 58 -19 17 -7 -16 -16 -28 -20 -25 -5 3 -6 -5 -3 -17 4 -19 3 -20 -6 -8
-12 16 -12 17 -11 -82 1 -25 -4 -49 -9 -53 -7 -4 -9 6 -7 25 3 25 0 30 -12 25
-11 -4 -12 -2 -5 7 15 19 23 99 13 123 -8 18 -9 18 -9 2 -1 -10 -8 -20 -16
-23 -8 -4 -13 -9 -10 -13 6 -11 -14 -81 -24 -81 -10 0 -25 69 -17 78 3 3 6 -3
6 -13 0 -10 3 -16 6 -13 9 10 -7 98 -17 92 -5 -3 -10 -20 -10 -37 -2 -30 -2
-29 -8 8 -6 39 -7 40 -20 16 -7 -13 -9 -21 -3 -17 5 3 9 -15 9 -44 -1 -32 -4
-45 -10 -37 -5 7 -7 0 -3 -20 3 -18 1 -35 -4 -38 -12 -7 -17 33 -9 72 4 18 4
35 1 38 -7 7 -33 -75 -27 -85 2 -3 -5 -6 -16 -6 -10 0 -19 4 -19 8 0 4 -4 8
-9 8 -6 0 -6 -12 1 -31 9 -26 8 -34 -7 -47 -10 -10 -15 -12 -11 -5 3 6 -1 19
-10 27 -9 9 -13 23 -10 31 3 8 1 15 -3 15 -5 0 -11 6 -14 14 -7 19 3 57 13 51
5 -3 11 -1 15 5 3 5 -1 10 -9 10 -9 0 -16 6 -17 13 0 6 -5 1 -11 -13 -6 -14
-10 -39 -9 -55 1 -20 -5 -34 -19 -43 -22 -13 -23 -12 -14 12 3 9 10 13 15 10
12 -7 0 99 -13 111 -7 7 -8 2 -3 -14 5 -18 4 -22 -6 -16 -9 6 -10 3 -5 -11 5
-10 10 -28 12 -39 l4 -20 -9 20 c-9 19 -9 19 -18 -4 -10 -24 -10 -24 -16 8 -4
18 -5 43 -2 54 3 12 1 29 -5 37 -9 13 -11 13 -19 0 -6 -9 -6 -19 0 -26 11 -14
-9 -77 -22 -68 -5 3 -9 -3 -9 -13 0 -14 -2 -15 -9 -4 -5 7 -14 10 -20 7 -8 -5
-7 -14 4 -29 8 -12 15 -26 15 -32 0 -5 -13 10 -29 35 -15 25 -36 52 -46 60
-17 14 -18 13 -11 -13 6 -24 5 -26 -7 -16 -8 7 -13 23 -11 36 1 12 -5 28 -13
35 -14 11 -15 10 -9 -12 6 -23 6 -23 -7 -7 -18 21 -31 22 -23 1 3 -8 1 -24 -5
-35 -9 -17 -13 -18 -26 -7 -15 12 -15 11 -4 -11 10 -17 10 -26 1 -35 -8 -8 -9
-6 -4 8 5 13 4 17 -4 12 -8 -5 -12 0 -12 13 0 27 -17 35 -29 14 -8 -14 -10
-15 -11 -3 0 12 -2 12 -9 2 -6 -10 -10 -9 -14 7 -3 12 0 21 6 21 8 0 7 3 -1 9
-8 4 -14 12 -15 17 -1 5 -5 8 -9 7 -4 -2 -12 15 -18 37 -6 21 -15 42 -21 46
-8 4 -8 1 0 -14 6 -11 12 -34 13 -51 1 -17 8 -33 15 -35 7 -3 13 -10 13 -15 0
-6 -8 -8 -17 -4 -16 6 -16 4 1 -15 11 -12 15 -22 10 -22 -5 0 -2 -4 6 -10 8
-5 12 -11 9 -15 -11 -11 -60 48 -57 69 2 13 -3 21 -12 21 -8 0 -18 5 -22 10
-4 6 -13 10 -20 10 -7 0 -12 9 -11 20 1 11 0 14 -3 8 -3 -7 -12 -13 -20 -13
-17 0 -18 -22 -2 -38 21 -21 32 -13 12 11 -13 15 -10 14 10 -4 35 -33 27 -56
-12 -32 -40 25 -14 0 32 -30 44 -29 59 -28 32 2 -10 11 -16 25 -14 32 4 12 35
-29 40 -53 2 -7 14 -21 28 -30 l25 -18 -40 0 c-28 0 -36 3 -26 9 11 7 7 14
-20 30 -34 21 -56 22 -52 3 1 -5 -3 -9 -10 -8 -20 3 -37 16 -37 29 0 8 3 7 9
-2 7 -11 9 -11 14 0 4 11 6 11 6 1 1 -7 6 -10 12 -7 11 8 -47 65 -65 65 -6 0
-3 -7 7 -14 12 -9 14 -16 7 -21 -5 -3 -7 -11 -4 -17 5 -7 2 -8 -5 -4 -7 5 -10
10 -7 13 3 3 -2 12 -10 20 -8 8 -12 18 -9 23 3 4 -2 13 -9 19 -10 8 -16 9 -21
1 -3 -6 -11 -8 -16 -5 -5 4 -9 1 -9 -4 0 -6 7 -11 15 -11 8 0 15 5 15 11 0 5
5 7 11 3 19 -11 -31 -32 -68 -29 -25 3 -33 0 -34 -13 0 -11 -2 -12 -6 -4 -2 6
-9 10 -14 7 -4 -3 -11 6 -15 20 -3 14 -10 25 -15 25 -5 0 -10 10 -10 23 -1 17
-2 18 -6 4 -2 -9 1 -33 7 -53 7 -19 10 -38 7 -41 -3 -3 -11 13 -18 36 -6 22
-18 42 -26 45 -10 4 -10 -1 2 -27 13 -26 13 -29 1 -13 -8 10 -19 15 -25 12 -5
-4 -12 -2 -16 4 -4 6 -11 7 -17 4 -6 -4 -9 -3 -6 2 3 5 -4 18 -15 29 -11 11
-17 14 -13 8 4 -8 2 -13 -5 -13 -7 0 -4 -7 7 -15 26 -20 -4 -21 -32 0 -12 8
-37 17 -55 20 -27 4 -30 3 -16 -5 9 -6 17 -15 17 -21 0 -5 -11 -2 -24 6 -30
20 -171 31 -160 14 5 -8 3 -9 -5 -5 -18 12 -139 17 -146 7 -2 -5 -33 -9 -67
-9 -40 0 -56 2 -43 7 28 11 -143 19 -424 19 -213 0 -234 2 -247 19 -12 14 -12
12 1 -14 17 -35 20 -69 7 -77 -13 -8 -52 23 -52 40 0 8 -17 37 -37 64 -44 58
-65 53 -41 -9 18 -44 3 -65 -19 -27 l-12 21 -1 -21 c0 -11 -7 -35 -16 -53 -9
-18 -14 -42 -11 -54 6 -21 5 -21 -8 -3 -8 10 -12 23 -9 27 3 5 -2 30 -11 56
-15 45 -15 48 2 60 10 7 24 17 31 23 9 8 12 7 12 -1 0 -7 3 -10 6 -6 3 3 -2
31 -11 61 -11 34 -15 68 -11 89 5 29 3 37 -18 51 -14 9 -34 16 -44 16 -10 0
-27 7 -38 15 -18 15 -18 15 8 9 23 -5 30 -2 37 17 5 13 10 18 10 12 2 -26 21
-12 21 15 0 21 3 24 10 12 7 -12 12 -7 25 23 18 44 14 67 -21 104 -24 26 -49
31 -109 23 -11 -1 -29 1 -40 5 -13 4 -16 4 -8 -2z m109 -531 c-3 -3 4 -16 16
-29 12 -13 17 -23 12 -23 -14 0 -29 13 -47 40 -21 31 -22 51 -1 24 14 -18 15
-18 9 6 -5 22 -4 23 5 7 7 -10 9 -21 6 -25z m831 12 c-3 -3 -12 -4 -19 -1 -8
3 -5 6 6 6 11 1 17 -2 13 -5z m40 0 c-3 -3 -12 -4 -19 -1 -8 3 -5 6 6 6 11 1
17 -2 13 -5z m533 -39 c6 4 17 1 25 -5 17 -14 21 -55 5 -45 -6 4 -8 10 -5 15
3 4 -2 13 -10 20 -10 9 -15 9 -15 1 0 -18 -14 -13 -29 12 -13 20 -13 21 2 9 9
-8 21 -11 27 -7z m1399 -39 c-9 -8 -10 -7 -5 7 3 10 7 26 7 35 1 9 4 6 6 -7 3
-13 -1 -28 -8 -35z m91 20 c-5 -15 -8 -32 -5 -37 3 -4 -1 -23 -10 -40 -10 -19
-14 -41 -10 -56 4 -18 2 -24 -7 -21 -7 3 -22 -15 -35 -43 -13 -27 -27 -51 -32
-54 -5 -3 -1 12 9 32 10 21 16 41 13 45 -2 5 0 8 6 8 12 0 34 66 27 79 -4 5
-1 13 5 16 5 4 8 13 5 21 -3 7 -1 16 4 19 6 4 10 17 10 30 0 13 6 25 13 28 18
6 19 3 7 -27z m-1570 14 c0 -5 -2 -10 -4 -10 -3 0 -8 5 -11 10 -3 6 -1 10 4
10 6 0 11 -4 11 -10z m-1238 -42 c-8 -8 -9 -4 -5 13 4 13 8 18 11 10 2 -7 -1
-18 -6 -23z m142 -29 c4 -21 13 -42 21 -49 19 -16 19 -30 0 -30 -18 0 -20 -17
-2 -23 9 -3 9 -8 -3 -23 -8 -10 -10 -16 -6 -12 5 4 15 3 22 -3 12 -10 16 -7
27 23 4 12 2 15 -9 11 -10 -4 -12 0 -8 11 4 9 9 14 12 11 3 -2 12 4 19 15 11
16 18 18 33 10 23 -12 50 -3 50 17 0 8 5 11 10 8 6 -4 7 -11 4 -17 -5 -7 -2
-8 5 -4 7 5 10 15 7 23 -11 29 62 80 118 82 31 1 59 -16 50 -30 -3 -5 -1 -9 4
-9 5 0 7 -14 4 -31 -4 -25 1 -42 24 -87 1 -1 9 0 18 4 9 3 16 16 15 28 0 21 0
21 -9 -1 -5 -13 -13 -23 -16 -23 -4 0 -4 3 -1 7 4 3 3 11 -2 17 -4 6 -11 19
-15 30 -4 13 -2 17 8 13 8 -3 16 2 19 14 3 10 11 19 18 19 7 0 9 -3 5 -7 -3
-4 8 -12 26 -17 25 -8 41 -26 69 -74 20 -34 51 -73 70 -85 20 -14 33 -30 31
-40 -2 -11 2 -15 11 -11 9 3 16 -3 20 -15 3 -12 1 -21 -3 -21 -12 0 -38 27
-44 48 -3 9 -19 23 -36 30 -16 8 -30 20 -30 27 0 8 -5 17 -11 21 -8 5 -10 -1
-7 -17 4 -21 0 -24 -25 -26 -16 -1 -35 -7 -43 -14 -10 -8 -15 -5 -20 15 -3 14
-10 23 -15 20 -5 -3 -7 -10 -3 -15 3 -5 0 -8 -8 -7 -8 2 -13 -7 -13 -25 1 -18
-3 -26 -12 -23 -7 3 -13 0 -13 -6 0 -6 -9 -3 -19 6 -11 10 -25 15 -30 11 -14
-8 -14 8 0 22 7 7 6 12 -5 16 -11 4 -13 1 -9 -11 6 -15 4 -15 -10 -4 -9 8 -21
10 -28 6 -13 -7 -9 22 6 60 6 13 5 17 -2 13 -6 -4 -13 2 -16 13 -4 16 -1 18
24 13 19 -4 29 -1 29 7 0 7 -7 10 -16 6 -10 -4 -13 -2 -8 6 5 8 2 9 -9 5 -10
-3 -17 -2 -17 3 0 5 -7 7 -16 3 -8 -3 -13 -12 -10 -20 4 -10 0 -13 -12 -11
-10 2 -16 12 -15 23 1 17 -2 16 -22 -7 -22 -25 -23 -43 -7 -110 1 -5 2 -17 2
-28 0 -13 5 -18 14 -14 8 3 13 11 10 17 -2 7 5 18 16 25 23 14 24 13 10 -22
-7 -20 -6 -26 8 -29 9 -3 -5 -3 -33 -1 l-50 3 23 -18 c15 -13 18 -21 10 -24
-20 -6 -48 4 -41 16 4 6 1 7 -6 3 -9 -6 -9 -12 3 -25 9 -10 13 -21 9 -24 -3
-4 2 -14 13 -23 17 -15 17 -15 -8 0 -18 10 -28 12 -30 4 -6 -17 -45 8 -54 34
-4 15 -1 25 11 34 14 10 14 16 5 34 -6 12 -14 19 -17 16 -3 -3 -1 -12 6 -19 9
-11 8 -17 -2 -25 -15 -13 -37 2 -37 25 0 7 -7 13 -15 13 -8 0 -15 7 -15 16 0
14 2 15 17 3 15 -12 16 -12 10 4 -4 10 -2 17 5 17 15 0 1 13 -17 16 -8 1 -13
-2 -10 -6 3 -5 1 -11 -5 -15 -5 -3 -10 -23 -10 -43 0 -20 -4 -42 -8 -47 -11
-16 -60 -35 -85 -34 -16 1 -14 3 11 10 35 10 39 18 20 37 -10 10 -10 15 2 22
10 6 15 34 17 101 2 51 9 99 15 106 12 15 -7 72 -26 74 -6 1 0 4 14 8 29 8 35
2 44 -50z m1504 36 c-3 -3 -9 2 -12 12 -6 14 -5 15 5 6 7 -7 10 -15 7 -18z
m839 -12 c-3 -10 -5 -4 -5 12 0 17 2 24 5 18 2 -7 2 -21 0 -30z m74 -6 c-6
-18 -11 -42 -10 -53 4 -34 -1 -54 -11 -54 -7 0 -7 6 0 19 13 25 13 31 0 31 -5
0 -10 -6 -10 -14 0 -8 -5 -18 -10 -21 -6 -4 -1 17 11 47 11 29 23 61 26 71 3
10 8 16 10 13 3 -3 0 -20 -6 -39z m-2641 -1 c0 6 -6 16 -12 23 -11 10 -9 11 7
5 11 -4 32 -21 48 -37 15 -16 20 -27 12 -23 -18 6 -19 1 -5 -25 8 -13 7 -19 0
-19 -6 0 -15 -11 -20 -25 -5 -14 -17 -25 -25 -25 -9 0 -13 -4 -10 -10 3 -5 1
-10 -4 -10 -15 0 -51 37 -51 53 1 7 6 5 14 -5 14 -18 32 -25 21 -9 -3 5 -1 12
5 16 5 3 7 19 3 35 -4 25 -2 30 13 31 16 0 16 1 -3 9 -12 5 -27 19 -34 32
l-12 23 27 -24 c14 -14 26 -20 26 -15z m2120 8 c0 -9 5 -12 13 -8 6 4 9 4 5
-1 -4 -4 -2 -15 5 -23 10 -13 9 -14 -10 -3 -13 6 -23 16 -23 21 0 4 -3 16 -7
26 -4 12 -3 15 5 10 7 -4 12 -14 12 -22z m895 7 c-3 -6 -11 -11 -17 -11 -6 0
-6 6 2 15 14 17 26 13 15 -4z m-1487 -16 c-3 -3 -9 2 -12 12 -6 14 -5 15 5 6
7 -7 10 -15 7 -18z m162 17 c0 -4 10 -8 21 -9 12 -1 26 -6 32 -12 12 -12 -32
-9 -52 3 -8 5 -17 3 -22 -5 -10 -16 -12 -8 -3 15 6 16 24 22 24 8z m-73 -29
c-3 -3 -11 -2 -17 2 -9 6 -9 10 1 16 14 8 27 -7 16 -18z m-1002 7 c3 -5 1 -10
-4 -10 -6 0 -11 5 -11 10 0 6 2 10 4 10 3 0 8 -4 11 -10z m870 -18 c-7 -8 -35
7 -35 18 0 6 7 6 20 -2 10 -7 17 -14 15 -16z m615 -16 c0 -26 -6 -18 -14 19
-5 22 -4 26 4 15 5 -8 10 -24 10 -34z m-95 25 c3 -5 2 -12 -3 -15 -5 -3 -9 1
-9 9 0 17 3 19 12 6z m282 -27 l3 -29 -15 25 c-18 31 -19 43 -3 38 6 -2 13
-17 15 -34z m428 -4 c-4 -17 -9 -29 -12 -26 -3 2 -2 19 2 36 4 17 9 29 12 26
3 -2 2 -19 -2 -36z m-1067 5 c-3 -3 -9 2 -12 12 -6 14 -5 15 5 6 7 -7 10 -15
7 -18z m232 -10 c0 -16 23 -25 49 -20 13 2 29 -6 45 -25 13 -16 27 -26 30 -23
3 4 -1 15 -11 25 -9 10 -14 21 -11 24 3 3 15 -4 26 -16 12 -13 25 -19 33 -15
8 5 10 4 5 -3 -4 -7 -2 -12 3 -12 14 0 14 -27 0 -35 -6 -4 -13 2 -16 14 -6 24
-21 28 -29 6 -5 -12 -12 -7 -33 17 -21 27 -33 33 -63 33 -20 -1 -34 3 -32 7 3
4 -10 12 -28 17 -25 7 -27 9 -11 10 17 1 21 5 16 19 -6 15 -5 15 10 3 9 -7 17
-19 17 -26z m301 18 c13 -16 12 -17 -3 -4 -17 13 -22 21 -14 21 2 0 10 -8 17
-17z m-2518 -8 c-3 -9 -8 -14 -10 -11 -3 3 -2 9 2 15 9 16 15 13 8 -4z m1472
5 c13 -6 5 -7 -25 -3 -25 3 -47 7 -49 9 -9 8 55 2 74 -6z m656 -7 c13 -16 12
-17 -3 -4 -10 7 -18 15 -18 17 0 8 8 3 21 -13z m219 -14 c0 -4 -9 -5 -20 -2
-11 3 -20 12 -20 19 0 12 4 12 20 2 11 -7 20 -16 20 -19z m-805 -17 c-5 -5
-45 22 -45 31 0 4 11 0 24 -10 13 -10 23 -19 21 -21z m315 10 c0 -8 -1 -13 -3
-11 -1 2 -9 12 -16 22 -12 15 -12 17 3 11 9 -3 16 -13 16 -22z m513 13 c4 -8
3 -16 -1 -19 -4 -3 -9 4 -9 15 -2 23 3 25 10 4z m56 -28 c1 -5 -3 -5 -9 -2 -5
3 -10 16 -9 28 0 21 1 21 9 2 5 -11 9 -24 9 -28z m168 21 c-3 -8 -6 -5 -6 6
-1 11 2 17 5 13 3 -3 4 -12 1 -19z m768 -18 c-34 -35 -45 -38 -38 -9 3 12 11
18 19 15 8 -3 19 4 25 15 6 11 13 18 17 15 3 -4 -7 -20 -23 -36z m-1583 9 c28
-17 29 -19 8 -14 -14 4 -32 13 -40 21 -21 20 -5 17 32 -7z m309 4 c13 -17 13
-17 -6 -3 -11 8 -22 16 -24 17 -2 2 0 3 6 3 6 0 17 -8 24 -17z m1041 -5 c-7
-7 -12 -8 -12 -2 0 14 12 26 19 19 2 -3 -1 -11 -7 -17z m-1453 -2 c9 3 -2 -4
-23 -15 -22 -12 -41 -19 -44 -17 -2 3 6 9 17 16 13 6 19 16 15 23 -5 9 -4 9 6
0 7 -6 20 -9 29 -7z m251 -1 c0 -8 -4 -15 -10 -15 -5 0 -7 7 -4 15 4 8 8 15
10 15 2 0 4 -7 4 -15z m1241 -8 c-10 -9 -11 -8 -5 6 3 10 9 15 12 12 3 -3 0
-11 -7 -18z m449 18 c0 -3 -87 -45 -95 -45 -6 0 2 30 10 37 4 4 5 2 1 -4 -10
-17 4 -16 28 2 18 14 56 21 56 10z m132 -2 c-52 -3 -63 -7 -58 -19 4 -11 1
-14 -13 -9 -11 3 -22 1 -26 -5 -3 -5 -14 -10 -23 -10 -15 0 -15 2 -2 10 11 7
11 10 2 10 -7 0 -10 5 -7 10 4 6 16 8 27 4 12 -4 18 -2 15 4 -4 5 24 9 71 9
73 -1 74 -1 14 -4z m-1082 -60 c0 -2 -7 2 -15 10 -8 9 -20 18 -27 20 -10 4
-10 8 1 15 11 8 18 4 28 -15 7 -14 13 -27 13 -30z m220 53 c0 -11 -19 -15 -25
-6 -3 5 1 10 9 10 9 0 16 -2 16 -4z m609 -22 c-14 -17 -33 -19 -23 -3 8 13
-34 3 -54 -14 -9 -7 -11 -6 -7 5 6 16 63 36 83 30 9 -3 10 -8 1 -18z m-587
-16 c-8 -8 -9 -4 -5 13 4 13 8 18 11 10 2 -7 -1 -18 -6 -23z m-1187 2 c10 -11
16 -20 13 -20 -3 0 -13 9 -23 20 -10 11 -16 20 -13 20 3 0 13 -9 23 -20z m140
10 c18 -8 17 -9 -7 -9 -16 -1 -28 4 -28 9 0 12 8 12 35 0z m1193 -8 c15 11 15
11 6 -2 -6 -8 -16 -28 -21 -45 -9 -28 -10 -26 -9 20 0 28 2 42 4 32 3 -15 6
-16 20 -5z m321 -21 c-17 -22 -38 -42 -46 -45 -8 -3 -11 -11 -7 -17 4 -7 3 -9
-4 -5 -5 3 -13 0 -15 -6 -3 -7 -6 -8 -6 -3 -1 10 95 115 105 115 3 0 -9 -18
-27 -39z m-2963 10 c12 10 13 9 7 -7 -6 -17 -5 -17 10 -5 9 7 17 9 17 3 0 -5
-7 -13 -15 -16 -14 -5 -14 -9 0 -35 18 -35 18 -41 4 -41 -5 0 -7 5 -4 10 9 15
-2 12 -32 -7 -15 -10 -24 -13 -21 -8 6 10 -9 14 -60 16 -22 1 -22 2 -5 15 10
7 14 14 10 14 -8 0 42 50 51 50 2 0 2 -7 -1 -14 -4 -10 -1 -13 8 -9 11 3 12
10 5 23 -5 9 -6 21 -2 25 4 4 9 -1 10 -10 3 -13 7 -14 18 -4z m1524 -2 c0 -5
7 -9 15 -9 8 0 15 -4 15 -9 0 -6 -17 -3 -37 6 -48 19 -49 21 -18 21 14 0 25
-4 25 -9z m1534 -15 c-14 -8 -31 -11 -37 -7 -5 3 -7 1 -4 -4 4 -6 -3 -19 -16
-29 -22 -19 -22 -19 -4 2 9 11 14 24 11 27 -4 4 -13 -1 -21 -11 -8 -9 -12 -11
-8 -4 3 6 1 12 -5 12 -6 0 -8 5 -5 10 3 6 19 10 35 10 16 0 31 4 34 9 3 5 15
7 26 4 19 -5 19 -6 -6 -19z m-3665 -10 c12 -15 21 -35 21 -45 0 -9 6 -20 13
-22 7 -4 6 -6 -5 -6 -9 -1 -18 -7 -21 -13 -2 -7 -4 1 -5 19 -1 31 -21 82 -22
56 0 -21 -30 -15 -30 5 0 39 21 42 49 6z m957 15 c3 -6 -1 -18 -10 -27 -15
-15 -16 -14 -16 11 0 27 13 36 26 16z m798 -8 c-37 -22 -57 -48 -30 -38 9 4
15 3 11 -2 -3 -6 -13 -9 -23 -9 -9 0 -26 -3 -37 -7 -13 -6 -9 1 10 16 43 36
78 59 90 59 5 0 -4 -9 -21 -19z m1096 -1 c10 0 20 -6 23 -14 5 -11 1 -11 -24
1 -16 8 -29 20 -28 26 0 8 2 8 6 0 2 -7 13 -13 23 -13z m113 -5 c-7 -21 -13
-19 -13 6 0 11 4 18 10 14 5 -3 7 -12 3 -20z m455 5 c-7 -10 -14 -17 -17 -15
-4 4 18 35 25 35 2 0 -1 -9 -8 -20z m33 -3 c-10 -9 -11 -8 -5 6 3 10 9 15 12
12 3 -3 0 -11 -7 -18z m57 -2 c-6 -14 -13 -23 -15 -21 -5 5 15 46 22 46 3 0
-1 -11 -7 -25z m-1223 5 c3 -6 -1 -7 -9 -4 -18 7 -21 14 -7 14 6 0 13 -4 16
-10z m523 -15 c-3 -3 -9 2 -12 12 -6 14 -5 15 5 6 7 -7 10 -15 7 -18z m573 -2
c-12 -20 -14 -14 -5 12 4 9 9 14 11 11 3 -2 0 -13 -6 -23z m-1151 7 c11 -7 5
-8 -20 -4 -43 8 -51 14 -19 14 13 0 31 -5 39 -10z m135 0 c3 -5 1 -10 -4 -10
-6 0 -11 5 -11 10 0 6 2 10 4 10 3 0 8 -4 11 -10z m260 -10 c10 -11 16 -20 13
-20 -3 0 -13 9 -23 20 -10 11 -16 20 -13 20 3 0 13 -9 23 -20z m42 -2 c-3 -8
-6 -5 -6 6 -1 11 2 17 5 13 3 -3 4 -12 1 -19z m-1684 -3 c4 -8 2 -17 -3 -20
-6 -4 -10 3 -10 14 0 25 6 27 13 6z m510 8 c-7 -2 -21 -2 -30 0 -10 3 -4 5 12
5 17 0 24 -2 18 -5z m1599 -35 c-6 -6 -7 0 -4 19 5 21 7 23 10 9 2 -10 0 -22
-6 -28z m388 23 c0 -5 -9 -19 -21 -32 l-21 -24 16 25 c19 29 21 44 4 34 -7 -4
-8 -3 -4 5 8 12 26 6 26 -8z m-3519 -18 c34 -32 38 -63 10 -63 -11 0 -22 4
-25 8 -5 9 -70 7 -94 -3 -8 -3 -21 3 -28 12 -12 16 -12 13 -3 -15 9 -25 9 -36
0 -45 -8 -8 -11 -3 -12 19 -1 16 -3 39 -4 52 -2 24 4 31 36 37 13 3 19 0 16
-8 -2 -7 -11 -11 -20 -11 -13 1 -14 -2 -4 -17 10 -16 13 -14 29 21 23 49 56
53 99 13z m1586 21 c-3 -3 -12 -4 -19 -1 -8 3 -5 6 6 6 11 1 17 -2 13 -5z
m362 -8 c9 -10 8 -15 -4 -19 -8 -4 -14 -3 -14 1 4 23 -4 22 -27 -4 -24 -27
-25 -27 -13 -4 20 40 39 49 58 26z m1651 -6 c-6 -11 -13 -20 -16 -20 -2 0 0 9
6 20 6 11 13 20 16 20 2 0 0 -9 -6 -20z m-1960 0 c13 -8 13 -10 -2 -10 -9 0
-20 5 -23 10 -8 13 5 13 25 0z m240 5 c0 -2 -3 -11 -6 -19 -5 -13 -9 -14 -20
-5 -19 16 -17 24 6 26 11 1 20 0 20 -2z m517 -1 c-3 -3 -12 -4 -19 -1 -8 3 -5
6 6 6 11 1 17 -2 13 -5z m471 -19 c-3 -3 -9 2 -12 12 -6 14 -5 15 5 6 7 -7 10
-15 7 -18z m-433 5 c3 -6 -1 -7 -9 -4 -18 7 -21 14 -7 14 6 0 13 -4 16 -10z
m1530 0 c3 -6 -1 -7 -9 -4 -18 7 -21 14 -7 14 6 0 13 -4 16 -10z m-3858 -6
c-3 -3 -12 -4 -19 -1 -8 3 -5 6 6 6 11 1 17 -2 13 -5z m3923 -14 c-34 -11 -60
-11 -35 0 11 5 29 8 40 8 16 0 15 -2 -5 -8z m-3904 -10 c21 -8 29 -8 35 2 7
10 11 10 21 0 9 -9 9 -12 -2 -12 -9 0 -7 -5 6 -14 16 -12 17 -17 6 -28 -11
-11 -16 -10 -26 5 -7 9 -18 17 -25 17 -6 0 -11 5 -11 10 0 6 -7 10 -16 8 -10
-2 -19 3 -21 10 -6 15 -2 15 33 2z m1570 -4 c14 4 16 3 5 -4 -11 -8 -11 -10 0
-15 8 -3 9 -6 3 -6 -7 -1 -20 7 -31 17 -10 9 -14 14 -7 9 6 -4 20 -5 30 -1z
m1964 10 c0 -2 -9 -6 -20 -9 -11 -3 -18 -1 -14 4 5 9 34 13 34 5z m163 -3 c-7
-2 -21 -2 -30 0 -10 3 -4 5 12 5 17 0 24 -2 18 -5z m-2488 -13 c3 -5 1 -10 -4
-10 -6 0 -11 5 -11 10 0 6 2 10 4 10 3 0 8 -4 11 -10z m2540 0 c4 -6 16 -8 28
-5 12 2 16 2 9 -1 -8 -4 -6 -12 10 -26 l23 -20 -28 17 c-22 13 -35 14 -58 6
-18 -6 -29 -6 -29 0 0 5 9 9 20 9 22 0 27 15 8 23 -10 4 -10 6 -1 6 6 1 15 -4
18 -9z m82 4 c-3 -3 -12 -4 -19 -1 -8 3 -5 6 6 6 11 1 17 -2 13 -5z m253 -14
c14 -11 21 -20 17 -20 -5 0 -20 9 -34 20 -14 11 -22 20 -17 20 5 0 20 -9 34
-20z m-3624 -5 c-11 -8 -25 -15 -30 -15 -6 1 0 7 14 15 32 19 40 18 16 0z
m519 -32 c5 -19 2 -23 -14 -23 -23 0 -28 19 -9 38 9 9 9 12 0 12 -7 0 -12 5
-12 12 0 18 26 -12 35 -39z m2605 27 c-6 -11 -13 -20 -16 -20 -2 0 0 9 6 20 6
11 13 20 16 20 2 0 0 -9 -6 -20z m-37 -8 c-10 -10 -29 -18 -43 -19 -22 -2 -21
0 10 16 45 24 54 25 33 3z m-2525 -15 c10 -8 10 -12 1 -18 -8 -4 -18 -1 -26 9
-25 33 -12 38 25 9z m2652 13 c-8 -5 -19 -10 -25 -10 -5 0 -3 5 5 10 8 5 20
10 25 10 6 0 3 -5 -5 -10z m-3435 -10 c3 -5 -3 -10 -14 -10 -12 0 -21 5 -21
10 0 6 6 10 14 10 8 0 18 -4 21 -10z m1431 -30 c5 0 3 4 -5 9 -9 6 -10 11 -2
15 10 6 15 -6 12 -26 0 -5 4 -8 9 -8 6 0 10 -7 10 -17 0 -15 -1 -15 -18 0 -20
19 -37 23 -27 7 10 -16 -12 -12 -29 6 -9 8 -14 20 -11 25 4 5 2 9 -4 9 -5 0
-13 -5 -16 -10 -4 -6 -10 -8 -15 -5 -4 3 -6 -4 -3 -15 3 -11 0 -20 -6 -20 -5
0 -8 -8 -5 -17 5 -15 4 -16 -5 -3 -9 12 -11 13 -11 1 0 -8 -3 -11 -6 -8 -4 4
-1 13 5 21 7 8 11 22 9 32 -2 11 7 23 22 30 21 11 29 10 56 -7 17 -10 35 -19
40 -19z m-16 36 c0 -3 -4 -8 -10 -11 -5 -3 -10 -1 -10 4 0 6 5 11 10 11 6 0
10 -2 10 -4z m1955 -16 c-3 -5 -14 -10 -23 -9 -14 0 -13 2 3 9 27 11 27 11 20
0z m-2545 -11 c0 -5 5 -7 12 -3 7 4 8 3 4 -4 -4 -6 2 -17 14 -24 11 -7 20 -20
20 -28 0 -13 -2 -13 -9 -1 -7 11 -10 10 -14 -5 -3 -13 -5 -10 -6 9 0 16 -5 26
-10 22 -6 -3 -15 3 -20 14 -14 25 -14 31 -1 31 6 0 10 -5 10 -11z m3100 -20
c0 -3 10 -15 21 -28 15 -15 18 -26 11 -33 -7 -7 -12 -3 -17 11 -3 12 -18 35
-33 52 -23 28 -24 30 -4 18 12 -8 22 -16 22 -20z m-3870 11 c0 -5 -2 -10 -4
-10 -3 0 -8 5 -11 10 -3 6 -1 10 4 10 6 0 11 -4 11 -10z m830 0 c0 -5 -2 -10
-4 -10 -3 0 -8 5 -11 10 -3 6 -1 10 4 10 6 0 11 -4 11 -10z m2677 4 c-3 -3
-12 -4 -19 -1 -8 3 -5 6 6 6 11 1 17 -2 13 -5z m108 -35 c4 -6 -7 -4 -23 5
-17 9 -34 21 -37 27 -4 6 7 4 23 -5 17 -9 34 -21 37 -27z m-3491 20 c-8 -13
16 -21 29 -10 9 7 13 5 13 -9 0 -10 -4 -16 -8 -14 -4 3 -16 1 -25 -4 -25 -13
-43 -4 -43 19 0 11 -4 17 -10 14 -5 -3 -10 -1 -10 5 0 5 13 9 29 8 16 -1 28
-5 25 -9z m2743 -11 c-3 -8 -6 -5 -6 6 -1 11 2 17 5 13 3 -3 4 -12 1 -19z
m483 11 c23 -8 22 -8 -6 -4 -38 5 -76 -4 -68 -16 3 -5 -5 -9 -17 -9 -21 0 -21
0 2 20 26 21 49 23 89 9z m-3130 -24 c0 -3 -9 -5 -20 -5 -11 0 -20 7 -20 15 0
13 4 14 20 5 11 -6 20 -13 20 -15z m469 -2 c24 -30 22 -38 -9 -28 -12 4 -19
13 -17 20 3 7 -1 12 -10 11 -9 0 -18 5 -20 12 -9 23 35 12 56 -15z m201 -1
c-7 -3 -19 3 -28 13 -16 15 -15 16 12 4 15 -7 23 -15 16 -17z m-1450 3 c0 -7
-30 -13 -34 -7 -3 4 4 9 15 9 10 1 19 0 19 -2z m1170 -5 c0 -5 -2 -10 -4 -10
-3 0 -8 5 -11 10 -3 6 -1 10 4 10 6 0 11 -4 11 -10z m708 -8 c2 -7 -3 -12 -12
-12 -9 0 -16 7 -16 16 0 17 22 14 28 -4z m1812 15 c0 -2 -9 -12 -20 -22 -24
-21 -27 -14 -4 9 15 15 24 20 24 13z m-3554 -22 c-11 -8 -22 -12 -25 -9 -6 6
19 24 34 24 6 -1 1 -7 -9 -15z m54 11 c0 -2 -7 -7 -16 -10 -8 -3 -12 -2 -9 4
6 10 25 14 25 6z m3763 -3 c-7 -2 -19 -2 -25 0 -7 3 -2 5 12 5 14 0 19 -2 13
-5z m302 -3 c3 -5 -1 -10 -10 -10 -9 0 -13 5 -10 10 3 6 8 10 10 10 2 0 7 -4
10 -10z m-4315 -10 c0 -5 -4 -10 -10 -10 -5 0 -10 5 -10 10 0 6 5 10 10 10 6
0 10 -4 10 -10z m393 -7 c-7 -2 -19 -2 -25 0 -7 3 -2 5 12 5 14 0 19 -2 13 -5z
m114 1 c-3 -3 -12 -4 -19 -1 -8 3 -5 6 6 6 11 1 17 -2 13 -5z m163 -5 c13 -9
13 -10 -2 -6 -9 3 -18 1 -20 -5 -2 -6 -13 -8 -27 -3 -18 6 -21 9 -10 16 19 12
41 11 59 -2z m196 -6 c11 -15 13 -15 14 -3 0 10 9 4 26 -15 14 -16 28 -25 32
-20 4 6 16 11 27 12 19 1 19 1 2 -11 -15 -12 -15 -15 -2 -26 11 -9 15 -9 15
-1 0 6 10 16 23 21 17 7 18 9 5 9 -20 1 -24 16 -8 26 5 3 19 -3 31 -13 l20
-20 -30 -13 c-17 -8 -31 -17 -31 -21 0 -4 -9 -6 -19 -5 -11 0 -17 5 -15 9 10
16 -9 8 -22 -9 -10 -15 -15 -16 -25 -5 -17 16 -26 15 -26 -2 0 -8 3 -14 6 -14
3 1 15 -3 25 -7 13 -6 21 -4 24 3 2 7 9 12 17 12 17 0 39 -27 26 -32 -19 -6
-1 -43 29 -60 27 -16 29 -15 43 5 11 16 15 18 22 7 6 -9 4 -11 -5 -5 -8 5 -11
4 -6 -3 4 -6 17 -8 34 -3 15 5 36 5 47 0 11 -4 14 -8 6 -8 -8 -1 -11 -4 -7 -8
4 -4 -8 -15 -26 -25 -32 -17 -32 -18 -5 -12 19 4 34 1 47 -11 11 -10 26 -15
34 -12 9 4 22 -1 31 -9 25 -26 17 1 -10 30 -29 31 -30 36 -10 36 8 0 28 -13
45 -30 33 -33 49 -37 69 -17 12 10 13 8 7 -8 -5 -17 -4 -18 6 -5 20 23 48 21
49 -4 1 -17 2 -17 6 -3 4 16 24 25 22 10 -3 -21 2 -32 15 -27 8 3 17 1 21 -5
3 -7 -2 -11 -14 -11 -12 0 -21 -3 -21 -7 0 -10 -61 -10 -77 0 -15 9 -43 -2
-43 -18 0 -17 -37 -48 -63 -52 -20 -2 -20 -2 -4 8 9 6 16 13 13 17 -2 4 11 18
30 32 34 25 47 54 19 44 -8 -4 -15 -10 -15 -14 0 -11 -39 -20 -45 -10 -3 5
-25 1 -50 -10 -32 -14 -45 -16 -49 -7 -2 7 -5 2 -5 -10 -1 -20 -27 -38 -47
-31 -5 2 -10 -1 -12 -7 -2 -5 7 -12 20 -15 19 -5 20 -7 6 -12 -10 -4 -23 1
-34 13 -9 10 -22 19 -28 18 -24 -3 -37 2 -31 11 4 6 -1 7 -11 3 -14 -5 -12 -8
10 -22 32 -19 33 -29 4 -41 -13 -5 -17 -9 -9 -9 8 -1 12 -4 8 -7 -8 -9 18 -34
35 -34 14 0 61 -50 66 -69 1 -6 -3 -11 -9 -11 -8 0 -8 -5 1 -15 10 -12 10 -15
-3 -15 -9 0 -18 12 -22 29 -6 27 -35 52 -35 30 0 -5 -6 -9 -12 -8 -34 4 -59
-2 -52 -13 4 -7 3 -8 -5 -4 -6 4 -9 11 -7 15 3 4 1 13 -4 21 -8 12 -13 13 -30
2 -11 -7 -19 -9 -18 -5 3 12 -24 63 -34 63 -4 0 -8 5 -8 11 0 5 5 7 10 4 6 -4
9 -1 8 6 -2 8 11 14 32 16 45 5 84 10 89 12 3 0 0 6 -7 13 -6 6 -25 11 -43 10
-29 -1 -27 2 27 29 32 16 53 29 46 29 -7 0 -10 5 -7 10 4 6 10 8 14 5 5 -2 19
4 31 15 28 24 20 26 -20 5 -23 -12 -30 -13 -30 -3 -1 7 -8 0 -16 -17 -8 -16
-12 -22 -9 -12 2 9 0 17 -5 17 -6 0 -6 9 0 25 11 29 11 29 -27 14 -22 -8 -25
-12 -13 -21 12 -8 12 -9 -3 -4 -10 3 -23 6 -28 6 -5 0 -9 5 -9 11 0 5 4 8 9 5
5 -3 14 1 21 9 7 8 23 15 36 15 12 0 26 5 29 10 3 6 12 10 18 10 8 0 8 -3 -2
-9 -8 -5 -9 -11 -3 -15 5 -3 13 1 16 10 4 11 -1 18 -14 21 -11 3 -20 9 -20 14
0 5 -8 9 -18 9 -10 0 -24 6 -31 13 -11 10 -14 10 -18 0 -3 -7 -9 -13 -14 -13
-6 0 -8 4 -4 9 3 5 1 12 -4 15 -5 3 -7 15 -4 26 6 21 -11 28 -23 8 -5 -7 -3
-8 6 -3 9 6 11 4 6 -4 -5 -7 -14 -10 -22 -7 -9 4 -14 -2 -14 -15 0 -15 5 -19
19 -14 13 4 18 1 17 -12 -2 -27 -27 -67 -35 -56 -3 6 -13 12 -21 15 -10 4 -4
10 20 20 l35 15 -83 4 c-46 2 -82 0 -82 -5 0 -5 -3 -6 -6 -3 -4 4 -1 14 7 23
13 16 11 17 -23 10 -24 -4 -38 -3 -38 4 0 5 5 10 11 10 5 0 7 5 4 10 -3 6 4
14 17 19 17 6 25 5 30 -8 6 -14 7 -14 7 2 1 10 5 16 10 13 4 -3 16 0 26 7 23
18 80 10 65 -8 -8 -10 -8 -15 1 -21 8 -4 9 -3 5 5 -4 7 2 15 16 20 13 6 17 10
9 10 -11 1 -11 5 2 19 35 38 12 58 -42 36 -44 -18 -44 -18 -25 11 9 14 12 25
8 25 -15 0 20 20 35 20 8 0 20 -8 27 -17z m392 -19 c13 -13 18 -24 12 -24 -5
0 -10 -7 -10 -15 0 -21 49 -19 67 3 14 16 14 16 9 0 -3 -10 -1 -18 4 -18 6 0
10 -4 10 -8 0 -7 -54 -7 -115 0 -6 1 -11 10 -11 20 0 21 12 24 19 6 4 -8 6 -7
6 4 2 31 -10 49 -24 38 -9 -8 -15 -8 -20 0 -3 6 -11 8 -16 5 -5 -4 -9 1 -9 10
0 22 49 9 78 -21z m-1123 16 c-3 -5 -12 -10 -18 -10 -7 0 -6 4 3 10 19 12 23
12 15 0z m35 -10 c0 -5 -2 -10 -4 -10 -3 0 -8 5 -11 10 -3 6 -1 10 4 10 6 0
11 -4 11 -10z m205 0 c-3 -5 -12 -10 -18 -10 -7 0 -6 4 3 10 19 12 23 12 15 0z
m1618 3 c-7 -2 -19 -2 -25 0 -7 3 -2 5 12 5 14 0 19 -2 13 -5z m687 -8 c0 -1
-15 -2 -32 -2 -26 -1 -29 1 -13 7 17 6 45 3 45 -5z m1378 8 c-10 -2 -26 -2
-35 0 -10 3 -2 5 17 5 19 0 27 -2 18 -5z m102 -3 c11 -8 7 -9 -15 -4 -37 8
-45 14 -19 14 10 0 26 -5 34 -10z m-3535 -21 c17 -1 16 -2 -5 -8 -14 -5 -29
-5 -35 -2 -5 3 -21 5 -35 3 -24 -1 -23 -1 5 12 18 9 34 11 40 5 5 -5 18 -9 30
-10z m3400 1 c3 -5 -4 -6 -15 -3 -11 3 -22 9 -25 13 -3 5 4 6 15 3 11 -3 22
-9 25 -13z m-3840 0 c-3 -5 -12 -10 -18 -10 -7 0 -6 4 3 10 19 12 23 12 15 0z
m520 0 c11 -5 14 -9 8 -9 -7 -1 -13 -6 -13 -12 0 -5 3 -8 8 -5 4 2 16 -2 27
-10 16 -12 17 -14 2 -14 -9 0 -17 4 -17 8 0 5 -7 9 -15 9 -11 0 -14 -7 -9 -21
4 -15 3 -17 -4 -7 -8 10 -14 11 -32 1 -16 -8 -25 -9 -33 -1 -8 8 -3 19 18 41
31 33 31 33 60 20z m695 0 c8 -5 11 -10 5 -10 -5 0 -17 5 -25 10 -8 5 -10 10
-5 10 6 0 17 -5 25 -10z m-250 -10 c0 -5 -5 -10 -11 -10 -5 0 -7 5 -4 10 3 6
8 10 11 10 2 0 4 -4 4 -10z m3055 0 c3 -6 -1 -7 -9 -4 -18 7 -21 14 -7 14 6 0
13 -4 16 -10z m-3355 -21 c0 -4 -7 -6 -15 -3 -8 4 -15 10 -15 15 0 4 7 6 15 3
8 -4 15 -10 15 -15z m460 11 c0 -5 -2 -10 -4 -10 -3 0 -8 5 -11 10 -3 6 -1 10
4 10 6 0 11 -4 11 -10z m1528 3 c-10 -2 -26 -2 -35 0 -10 3 -2 5 17 5 19 0 27
-2 18 -5z m-1764 -18 c3 -8 1 -15 -4 -15 -6 0 -10 7 -10 15 0 8 2 15 4 15 2 0
6 -7 10 -15z m2761 5 c-3 -5 -11 -10 -16 -10 -6 0 -7 5 -4 10 3 6 11 10 16 10
6 0 7 -4 4 -10z m251 -5 c10 -8 15 -14 9 -14 -5 0 -19 6 -29 14 -11 8 -15 15
-10 15 6 0 19 -7 30 -15z m159 -3 c-3 -3 -11 0 -18 7 -9 10 -8 11 6 5 10 -3
15 -9 12 -12z m-4025 -1 c0 -5 -7 -12 -16 -15 -14 -5 -15 -4 -4 9 14 17 20 19
20 6z m35 -1 c-3 -5 -11 -10 -16 -10 -6 0 -7 5 -4 10 3 6 11 10 16 10 6 0 7
-4 4 -10z m64 -5 c10 3 22 1 26 -5 3 -6 -3 -10 -15 -10 -28 0 -48 -20 -42 -44
4 -14 2 -17 -9 -11 -12 7 -12 6 -1 -7 11 -14 36 -18 105 -19 9 0 17 -4 17 -8
0 -14 -37 -20 -49 -8 -21 21 -21 0 0 -22 l21 -22 -21 -6 c-22 -5 -29 -23 -10
-23 18 0 39 28 33 44 -4 12 0 16 15 16 12 0 21 6 21 15 0 9 9 14 23 13 12 -1
37 2 55 6 38 9 43 -7 12 -46 -10 -14 -17 -28 -13 -31 3 -4 -2 -18 -11 -32 -10
-15 -15 -32 -12 -38 2 -7 8 -2 11 10 6 18 11 21 25 13 10 -6 30 -10 44 -10 14
0 26 -5 26 -11 0 -6 -6 -9 -12 -6 -7 2 -26 -2 -41 -10 -15 -8 -32 -11 -37 -8
-12 7 -12 3 -4 -19 5 -14 8 -14 18 -3 6 9 20 12 33 8 18 -5 13 -9 -28 -23 -47
-16 -50 -16 -44 0 5 14 4 15 -7 4 -11 -11 -10 -16 5 -27 18 -13 17 -15 -11
-44 -19 -20 -35 -29 -46 -25 -22 9 -10 24 20 24 28 0 32 15 7 29 -10 6 -13 11
-7 11 7 0 14 11 16 25 3 13 2 24 -1 23 -23 -2 -49 18 -63 50 -10 20 -15 27
-12 15 4 -18 2 -22 -10 -17 -11 4 -16 0 -18 -12 0 -11 -4 1 -7 26 -5 34 -3 48
9 58 13 12 12 13 -10 10 -16 -2 -24 2 -22 10 1 6 -4 11 -10 10 -7 -2 -14 4
-14 12 -1 8 -2 20 -3 25 0 6 -12 -3 -26 -19 -14 -16 -25 -24 -25 -17 0 7 -4 9
-10 6 -5 -3 -10 -1 -10 5 0 7 7 10 15 6 8 -3 15 -1 15 4 0 6 -9 10 -21 10 -11
0 -17 4 -14 10 4 6 15 8 25 5 10 -3 21 -1 25 5 3 5 -3 10 -14 10 -11 0 -23 5
-26 10 -3 6 -1 10 6 10 7 0 21 7 31 17 10 9 18 11 18 5 0 -6 -6 -13 -12 -15
-8 -3 -6 -6 5 -6 9 -1 17 6 17 14 0 8 5 15 11 15 8 0 7 6 -2 18 -13 15 -12 16
3 4 9 -8 26 -11 37 -7z m181 -5 c14 -11 20 -20 13 -20 -6 0 -15 5 -18 10 -3 6
-11 10 -16 10 -6 0 -3 -8 7 -17 17 -17 16 -18 -14 -21 -18 -2 -32 -8 -32 -15
0 -6 -6 -4 -12 5 -16 20 -58 33 -58 18 0 -6 -4 -8 -10 -5 -5 3 -10 0 -10 -7 0
-10 -2 -10 -9 1 -5 8 -14 10 -22 6 -10 -6 -11 -5 -3 4 6 6 29 13 52 15 23 3
46 7 52 11 5 3 10 -2 11 -12 0 -11 3 -13 6 -5 2 6 9 10 14 6 5 -3 9 4 9 15 0
26 8 26 40 1z m40 5 c11 -13 10 -14 -4 -9 -9 3 -16 10 -16 15 0 13 6 11 20 -6z
m1486 -3 c-16 -2 -32 0 -37 5 -5 5 7 7 29 4 34 -5 35 -6 8 -9z m644 8 c-8 -5
-24 -9 -35 -9 -16 1 -16 2 5 9 35 11 48 11 30 0z m1213 3 c-7 -2 -19 -2 -25 0
-7 3 -2 5 12 5 14 0 19 -2 13 -5z m-2465 -19 c-13 -13 -20 -14 -34 -5 -17 11
-17 11 3 6 12 -3 24 -1 28 5 3 5 9 10 13 10 3 0 -1 -7 -10 -16z m2557 6 c18
-8 17 -9 -7 -9 -16 -1 -28 4 -28 9 0 12 8 12 35 0z m172 0 c-1 -4 10 -18 25
-31 l27 -24 -26 -2 c-19 -1 -22 1 -12 8 13 8 5 13 -14 10 -5 -1 -5 3 -2 9 4 7
-2 14 -14 17 -27 7 -27 18 -1 20 11 1 19 -2 17 -7z m-4092 -28 c-3 -3 -11 0
-18 7 -9 10 -8 11 6 5 10 -3 15 -9 12 -12z m530 8 c-3 -5 -10 -10 -16 -10 -5
0 -9 5 -9 10 0 6 7 10 16 10 8 0 12 -4 9 -10z m720 -10 c-5 -15 0 -23 19 -31
14 -7 23 -15 21 -19 -8 -13 67 -42 78 -31 14 14 27 14 27 1 0 -5 -7 -10 -17
-10 -21 0 -8 -13 17 -17 12 -2 20 3 20 12 0 12 3 12 18 -2 10 -10 18 -27 17
-37 0 -10 6 -21 14 -24 9 -3 11 0 6 8 -6 10 -2 12 13 8 29 -8 28 0 0 13 -19 8
-17 9 12 4 36 -6 56 -25 39 -36 -6 -3 1 -9 16 -13 16 -4 33 -2 41 5 19 15 18
33 -2 25 -8 -3 -12 -2 -9 4 3 6 15 10 26 10 11 0 18 -4 14 -10 -7 -11 35 -40
55 -37 8 2 21 6 28 10 6 5 12 4 12 -1 0 -6 15 -12 34 -14 19 -2 33 -1 30 3 -2
4 0 10 6 14 5 3 10 1 10 -4 0 -6 10 -11 23 -11 12 0 35 -7 50 -15 25 -13 31
-13 52 1 19 13 27 13 44 2 12 -7 21 -23 21 -35 0 -20 -5 -23 -39 -23 -37 0
-39 -1 -37 -32 2 -45 -27 -50 -49 -9 -14 28 -20 31 -63 31 -27 0 -53 5 -60 12
-8 8 -15 8 -27 -2 -10 -8 -15 -9 -15 -1 0 6 -5 11 -11 11 -5 0 -8 -3 -6 -7 3
-5 -8 -7 -24 -7 -16 1 -48 2 -71 3 -40 1 -41 1 -23 21 25 28 5 53 -31 39 -37
-13 -49 -11 -34 6 7 9 10 19 6 22 -4 4 -10 3 -14 -2 -12 -17 -78 -18 -94 -1
-9 8 -19 12 -23 8 -5 -4 -5 -1 -1 6 4 7 11 10 16 7 5 -3 11 -1 15 4 9 15 -26
30 -60 25 -24 -3 -25 -2 -7 4 23 7 23 7 -7 25 -17 10 -31 14 -31 8 0 -5 6 -12
13 -14 6 -3 7 -6 1 -6 -5 -1 -20 13 -33 30 -13 18 -29 28 -37 25 -9 -3 -20 7
-30 27 l-17 32 28 -25 c16 -14 25 -20 22 -13 -4 6 -4 18 -1 27 9 23 17 20 9
-4z m2612 14 c-3 -3 -12 -4 -19 -1 -8 3 -5 6 6 6 11 1 17 -2 13 -5z m-2684
-21 c-5 -12 -3 -14 7 -8 8 5 11 4 6 -3 -7 -12 -36 -5 -36 8 0 7 7 12 27 19 1
1 -1 -6 -4 -16z m317 5 c0 -4 -4 -8 -9 -8 -6 0 -12 4 -15 8 -3 5 1 9 9 9 8 0
15 -4 15 -9z m360 2 c-19 -13 -30 -13 -30 0 0 6 10 10 23 10 18 0 19 -2 7 -10z
m2144 -8 c73 -29 29 -38 -64 -13 -19 5 -27 9 -17 10 10 1 15 6 12 11 -9 15 14
12 69 -8z m-3917 -6 c-6 -7 -16 -13 -22 -13 -6 0 -23 -3 -39 -7 -24 -6 -26 -5
-15 7 17 16 31 22 63 23 19 1 22 -1 13 -10z m977 -18 c-4 -6 -9 -5 -14 2 -4 7
-13 9 -19 6 -6 -4 -11 -3 -11 3 0 14 23 20 37 9 7 -6 10 -15 7 -20z m647 22
c52 -28 -12 -29 -82 -1 -21 9 -19 10 19 10 24 1 52 -4 63 -9z m2042 3 c-7 -2
-19 -2 -25 0 -7 3 -2 5 12 5 14 0 19 -2 13 -5z m566 -46 c-2 -3 -15 10 -28 27
l-24 31 28 -27 c16 -15 27 -29 24 -31z m-3999 26 c9 8 11 9 6 0 -3 -6 0 -14 6
-16 7 -3 1 -6 -14 -6 -34 -1 -59 9 -52 20 3 5 13 5 23 -1 12 -6 22 -5 31 3z
m680 -3 c8 -5 11 -10 5 -10 -5 0 -17 5 -25 10 -8 5 -10 10 -5 10 6 0 17 -5 25
-10z m3101 -12 c10 -13 18 -29 19 -35 0 -16 -26 -17 -35 -2 -4 5 -19 15 -33
21 -23 9 -24 12 -9 15 11 3 30 -6 45 -19 25 -23 22 -8 -6 25 -8 9 -12 17 -8
17 4 0 16 -10 27 -22z m164 2 c10 -11 16 -20 13 -20 -3 0 -13 9 -23 20 -10 11
-16 20 -13 20 3 0 13 -9 23 -20z m-3125 -10 c0 -4 -11 -5 -25 -2 -14 2 -23 8
-20 12 6 10 45 1 45 -10z m2787 14 c-3 -3 -12 -4 -19 -1 -8 3 -5 6 6 6 11 1
17 -2 13 -5z m-3812 -25 c-29 -11 -32 -11 -38 4 -4 10 3 12 27 9 27 -4 28 -6
11 -13z m1236 3 c-7 -2 -18 1 -23 6 -8 8 -4 9 13 5 13 -4 18 -8 10 -11z m1316
12 c-3 -3 -12 -4 -19 -1 -8 3 -5 6 6 6 11 1 17 -2 13 -5z m1293 -4 c0 -5 -2
-10 -4 -10 -3 0 -8 5 -11 10 -3 6 -1 10 4 10 6 0 11 -4 11 -10z m-3890 -16 c0
-2 -9 -4 -21 -4 -11 0 -18 4 -14 10 5 8 35 3 35 -6z m530 -21 c0 -7 -10 -18
-22 -23 -23 -9 -23 -9 -2 -9 29 -1 41 -31 13 -31 -11 0 -18 4 -15 9 3 4 -6 6
-20 3 -21 -4 -25 -1 -22 14 2 11 9 25 16 32 7 8 10 17 7 22 -8 13 18 19 33 7
6 -5 12 -16 12 -24z m665 9 c-2 -3 -12 -1 -22 2 -15 6 -15 9 -3 16 13 8 35 -8
25 -18z m1292 22 c-3 -3 -12 -4 -19 -1 -8 3 -5 6 6 6 11 1 17 -2 13 -5z
m-2033 -18 c-10 -8 -21 -12 -24 -10 -5 6 21 24 34 24 6 0 1 -6 -10 -14z m972
2 c5 -7 3 -8 -6 -3 -8 5 -11 4 -6 -3 4 -6 13 -9 21 -6 8 4 12 11 8 17 -3 5 -1
7 5 4 5 -4 8 -15 5 -25 -5 -19 -48 -28 -58 -12 -4 6 -11 8 -16 5 -5 -4 -9 1
-9 9 0 8 10 17 23 19 12 2 23 5 24 6 1 0 5 -4 9 -11z m321 -5 c-14 -14 -19
-15 -29 -4 -11 11 -10 13 4 8 10 -3 20 -2 23 3 4 6 9 10 13 10 3 0 -1 -8 -11
-17z m-1704 -5 c-12 -20 -12 -38 -1 -38 6 0 6 -6 -2 -15 -6 -8 -9 -19 -5 -25
3 -5 2 -10 -4 -10 -5 0 -13 5 -16 10 -4 6 -12 10 -18 9 -33 -4 -33 4 0 41 34
37 64 55 46 28z m512 3 c3 -5 1 -12 -5 -16 -5 -3 -10 1 -10 9 0 18 6 21 15 7z
m576 -9 c-7 -2 -18 1 -23 6 -8 8 -4 9 13 5 13 -4 18 -8 10 -11z m374 6 c-11
-6 -25 -19 -32 -27 -16 -21 -16 -6 -1 19 7 11 22 20 33 20 20 -1 20 -1 0 -12z
m329 -2 c-3 -9 -12 -12 -22 -9 -15 6 -9 11 25 22 1 1 0 -5 -3 -13z m2279 7
c-7 -2 -19 -2 -25 0 -7 3 -2 5 12 5 14 0 19 -2 13 -5z m171 -9 c5 -14 4 -15
-9 -4 -17 14 -19 20 -6 20 5 0 12 -7 15 -16z m-4326 -10 c-16 -8 -28 -19 -28
-25 0 -6 -4 -8 -9 -4 -5 3 -12 1 -16 -5 -8 -13 -18 -13 -39 3 -16 12 -16 14
-2 14 9 0 16 -4 16 -9 0 -5 13 -1 30 9 17 9 30 21 30 25 0 4 10 8 23 8 21 -1
20 -2 -5 -16z m712 6 c0 -12 -8 -12 -35 0 -18 8 -17 9 8 9 15 1 27 -3 27 -9z
m126 -9 c0 -14 -4 -17 -12 -11 -6 6 -15 6 -20 2 -4 -4 -2 1 5 11 18 22 27 22
27 -2z m869 9 c-3 -5 -11 -10 -16 -10 -6 0 -7 5 -4 10 3 6 11 10 16 10 6 0 7
-4 4 -10z m-95 -13 c0 -5 7 -4 15 3 12 10 15 9 15 -4 0 -10 4 -15 8 -12 5 3 9
-1 9 -9 0 -13 -4 -12 -19 2 -14 13 -18 13 -18 2 0 -11 -2 -11 -9 -1 -4 7 -19
11 -32 9 -13 -2 -18 -2 -11 0 6 3 12 8 12 12 0 4 7 8 15 8 8 0 15 -5 15 -10z
m2140 3 c0 -5 -2 -10 -4 -10 -3 0 -8 5 -11 10 -3 6 -1 10 4 10 6 0 11 -4 11
-10z m435 -37 c11 -7 16 -13 12 -13 -11 0 -87 49 -87 56 0 6 24 -8 75 -43z
m-4062 22 c-3 -9 -8 -14 -10 -11 -3 3 -2 9 2 15 9 16 15 13 8 -4z m356 3 c-1
-1 4 -14 11 -28 12 -23 12 -24 -3 -12 -9 8 -21 11 -27 7 -6 -3 -10 3 -10 14 0
15 4 19 17 14 12 -5 14 -3 8 8 -4 8 -5 11 -1 7 4 -3 7 -8 5 -10z m175 -28 c-3
-2 -9 2 -14 10 -7 11 -11 11 -24 1 -9 -8 -16 -10 -16 -6 0 4 8 13 17 20 14 11
19 10 29 -4 7 -9 10 -18 8 -21z m223 34 c-3 -3 -12 -4 -19 -1 -8 3 -5 6 6 6
11 1 17 -2 13 -5z m338 -14 c3 -5 1 -10 -4 -10 -6 0 -11 5 -11 10 0 6 2 10 4
10 3 0 8 -4 11 -10z m325 0 c0 -5 -5 -10 -11 -10 -5 0 -7 5 -4 10 3 6 8 10 11
10 2 0 4 -4 4 -10z m-785 -18 c-3 -3 -11 0 -18 7 -9 10 -8 11 6 5 10 -3 15 -9
12 -12z m1138 11 c-7 -2 -21 -2 -30 0 -10 3 -4 5 12 5 17 0 24 -2 18 -5z
m1692 -3 c3 -5 -1 -10 -10 -10 -9 0 -13 5 -10 10 3 6 8 10 10 10 2 0 7 -4 10
-10z m204 -44 c-3 -3 -11 5 -18 17 -13 21 -12 21 5 5 10 -10 16 -20 13 -22z
m381 -8 c0 -6 -7 -5 -15 2 -8 7 -15 17 -15 22 0 6 7 5 15 -2 8 -7 15 -17 15
-22z m-3583 -22 c4 1 14 -1 21 -4 11 -4 11 -6 0 -13 -18 -12 4 -12 36 1 14 5
25 6 23 2 -1 -4 6 -18 16 -32 13 -19 19 -22 26 -12 6 10 10 8 16 -10 17 -56
16 -57 -41 -33 -20 8 -40 12 -45 9 -5 -3 -9 0 -9 6 0 6 -8 14 -17 17 -28 11
-45 32 -37 45 5 8 1 8 -10 -1 -14 -12 -19 -12 -25 -2 -6 10 -12 9 -25 -4 -9
-9 -16 -12 -16 -6 0 6 -8 11 -17 12 -14 0 -13 3 5 11 12 6 22 14 22 19 0 4 9
5 20 2 16 -4 20 0 20 18 l1 24 14 -25 c7 -14 17 -24 22 -24z m43 24 c0 -5 -7
-7 -15 -4 -8 4 -12 10 -9 15 6 11 24 2 24 -11z m2080 15 c0 -2 -10 -10 -22
-16 -21 -11 -22 -11 -9 4 13 16 31 23 31 12z m156 -18 c-3 -12 -6 -29 -6 -37
-1 -12 -3 -11 -11 3 -7 11 -17 16 -29 12 -14 -4 -18 -1 -16 17 1 19 7 23 34
25 30 2 33 -1 28 -20z m319 13 c-3 -5 -12 -10 -18 -10 -7 0 -6 4 3 10 19 12
23 12 15 0z m1090 0 c7 11 25 4 25 -10 0 -5 -7 -7 -15 -4 -11 5 -15 -1 -16
-22 -2 -28 -2 -28 -6 -4 -3 14 -10 32 -16 40 -10 13 -10 13 5 2 11 -9 18 -10
23 -2z m-3565 -10 c0 -5 -8 -10 -17 -10 -15 0 -16 2 -3 10 19 12 20 12 20 0z
m3195 -16 c11 -17 12 -25 4 -22 -6 2 -16 14 -20 26 -11 29 -5 28 16 -4z
m-3238 10 c-3 -3 -12 -4 -19 -1 -8 3 -5 6 6 6 11 1 17 -2 13 -5z m2291 -10
c-33 -17 -34 -21 -11 -46 15 -17 15 -18 -10 -18 -16 0 -27 6 -29 18 -3 14 -5
14 -10 -4 -8 -31 6 -47 42 -47 20 0 26 -3 18 -9 -10 -6 -10 -8 0 -8 7 0 17
-11 24 -24 6 -14 17 -27 25 -30 8 -3 12 -2 8 3 -3 5 1 16 9 24 15 15 72 12 82
-4 3 -5 10 -9 16 -9 6 0 3 9 -7 20 -10 11 -15 23 -11 28 5 4 15 -3 23 -15 9
-13 23 -23 32 -24 14 0 13 -1 -2 -7 -15 -7 -16 -10 -4 -26 14 -19 15 -18 35 2
12 12 22 18 22 13 0 -6 -5 -13 -11 -16 -6 -4 -8 -13 -5 -21 8 -21 -12 -27 -44
-14 -17 7 -27 17 -24 25 8 19 -13 28 -37 15 -17 -10 -21 -8 -26 10 -8 30 -27
19 -31 -18 l-3 -32 -22 20 c-11 11 -28 20 -37 20 -25 0 -31 11 -17 28 10 13 9
14 -10 3 -13 -6 -23 -7 -23 -2 0 10 -61 34 -68 26 -3 -3 9 -11 27 -18 19 -7
34 -21 37 -34 4 -13 14 -23 23 -23 14 0 14 -2 1 -10 -11 -7 -17 -4 -24 10 -11
24 -26 26 -26 5 0 -8 -5 -15 -11 -15 -6 0 -9 9 -6 19 3 15 1 18 -11 14 -11 -5
-13 -2 -8 8 4 8 -2 3 -13 -11 -20 -25 -28 -45 -13 -37 4 3 27 2 52 -2 25 -4
58 -4 73 0 17 5 30 3 37 -6 6 -7 19 -11 30 -8 21 6 140 -81 140 -103 0 -7 -12
-22 -26 -33 -26 -20 -25 -41 2 -41 8 0 40 -14 73 -32 66 -36 95 -33 85 6 -5
22 -1 27 34 41 29 12 44 25 51 47 8 23 16 29 33 26 22 -3 23 -7 23 -88 0 -71
4 -91 22 -120 13 -19 23 -42 23 -50 0 -17 52 -40 88 -40 12 0 22 -4 22 -9 0
-5 11 -19 25 -32 15 -15 25 -35 25 -52 0 -20 6 -30 20 -34 27 -7 25 -13 -9
-46 -33 -30 -62 -35 -85 -12 -23 23 -43 18 -55 -15 -5 -16 -16 -30 -23 -30
-20 0 -108 59 -108 71 0 14 -83 5 -88 -9 -6 -19 -41 0 -53 29 -6 16 -25 39
-40 50 -25 18 -30 18 -35 5 -8 -22 -31 -20 -46 4 -10 15 -24 20 -58 20 -64 0
-90 9 -90 31 0 10 5 21 11 25 6 3 19 26 29 50 11 26 26 44 35 44 23 0 105 -86
105 -109 0 -11 5 -23 11 -26 13 -9 49 23 49 43 0 9 10 26 21 39 l22 22 -26 33
c-14 18 -36 43 -49 56 -69 68 -92 74 -152 45 -32 -15 -36 -15 -60 1 -34 21
-33 53 0 68 20 9 30 9 45 0 25 -16 39 -15 39 1 0 27 -39 50 -88 52 -26 1 -68
7 -94 13 -35 9 -54 9 -72 1 -28 -13 -58 -6 -52 13 3 7 7 35 10 62 5 42 4 47
-9 36 -8 -7 -15 -19 -15 -26 0 -14 -12 -18 -39 -15 -7 2 -10 -2 -6 -8 4 -7 -2
-9 -17 -7 -13 3 -28 5 -33 5 -15 1 -13 45 3 64 11 12 11 19 1 35 -12 19 -14
19 -25 4 -14 -20 -29 -10 -21 13 4 8 17 15 31 15 14 0 28 5 32 11 5 9 -1 10
-22 5 l-29 -6 25 14 c14 8 28 12 33 9 4 -2 50 -6 102 -8 69 -2 93 0 89 9 -3 6
2 2 10 -8 15 -19 16 -18 16 16 0 37 13 57 25 38 4 -6 16 -3 32 10 14 11 31 20
37 20 6 -1 -1 -8 -16 -16z m182 12 c0 -2 -7 -7 -16 -10 -8 -3 -12 -2 -9 4 6
10 25 14 25 6z m611 -11 c0 -5 -5 -11 -13 -13 -10 -3 -10 -1 1 6 11 8 10 11
-5 15 -16 5 -16 6 -1 4 10 -1 18 -6 18 -12z m-2313 -31 c-3 -14 -5 -12 -10 9
-3 19 -2 25 4 19 6 -6 8 -18 6 -28z m-1238 11 c0 -15 16 -18 73 -18 27 1 41
-26 15 -28 -47 -5 -56 -7 -66 -13 -6 -4 -8 2 -5 14 5 18 0 22 -27 22 -3 1 -18
-3 -35 -6 -30 -7 -30 -7 -7 9 12 9 27 13 34 9 8 -5 9 -2 5 9 -3 10 -2 17 3 17
6 0 10 -7 10 -15z m1059 -10 c5 -27 38 -58 52 -49 9 5 10 2 6 -10 -4 -10 -2
-16 6 -15 6 1 23 1 37 -1 43 -3 -5 -16 -58 -15 -44 0 -48 3 -64 35 -10 20 -15
45 -11 58 6 26 26 24 32 -3z m1001 15 c5 0 17 -9 27 -19 10 -10 27 -21 38 -24
11 -3 -2 -3 -30 0 -59 7 -68 11 -61 28 3 8 2 16 -2 18 -4 2 -1 2 6 0 8 -1 18
-3 22 -3z m835 0 c-3 -5 -12 -10 -18 -10 -7 0 -6 4 3 10 19 12 23 12 15 0z
m390 0 c3 -5 1 -10 -4 -10 -6 0 -11 5 -11 10 0 6 2 10 4 10 3 0 8 -4 11 -10z
m106 3 c-11 -5 -11 -7 0 -14 11 -7 10 -9 -3 -9 -18 0 -23 11 -11 23 3 4 11 7
17 6 6 0 5 -3 -3 -6z m-3311 -13 c0 -5 -2 -10 -4 -10 -3 0 -8 5 -11 10 -3 6
-1 10 4 10 6 0 11 -4 11 -10z m2379 -11 c-16 -10 -23 -4 -14 10 3 6 11 8 17 5
6 -4 5 -9 -3 -15z m857 -6 c-10 -10 -19 5 -10 18 6 11 8 11 12 0 2 -7 1 -15
-2 -18z m223 -2 c0 -10 -2 -11 -6 -3 -2 6 -11 12 -19 12 -8 0 -14 4 -14 9 0 5
9 7 20 4 11 -3 20 -13 19 -22z m581 8 c0 -6 -4 -7 -10 -4 -5 3 -10 11 -10 16
0 6 5 7 10 4 6 -3 10 -11 10 -16z m-3030 1 c0 -5 -2 -10 -4 -10 -3 0 -8 5 -11
10 -3 6 -1 10 4 10 6 0 11 -4 11 -10z m752 -32 c-2 -10 -6 -18 -7 -18 -1 0 -5
8 -7 18 -3 11 0 19 7 19 7 0 10 -8 7 -19z m389 13 c-11 -7 -9 -10 8 -16 12 -3
19 -10 16 -15 -3 -4 -16 -3 -29 3 -26 12 -24 37 3 37 13 0 13 -2 2 -9z m159
-1 c0 -5 8 -7 18 -3 14 5 13 3 -3 -10 -13 -10 -22 -12 -26 -5 -4 6 -13 14 -20
19 -10 6 -8 9 9 9 12 0 22 -4 22 -10z m990 -25 c-10 -12 -9 -15 6 -16 11 -1
22 -1 26 0 4 0 20 -4 35 -9 26 -9 27 -9 9 5 -30 23 -10 31 27 11 29 -16 30
-16 12 0 -18 15 -18 16 -2 10 10 -3 23 -6 28 -6 4 0 6 -7 3 -15 -5 -11 2 -13
33 -8 36 6 37 5 23 -12 -14 -17 -13 -17 10 -11 19 6 21 5 10 -3 -12 -9 -11
-11 7 -11 15 0 25 -8 29 -24 3 -13 15 -27 27 -30 30 -8 34 2 6 13 -13 5 -20
10 -16 10 5 1 -2 15 -14 32 l-22 31 22 -11 c12 -7 25 -20 28 -29 4 -9 12 -21
18 -27 7 -5 15 -17 17 -25 5 -12 -6 -15 -58 -13 -35 1 -64 5 -65 10 0 4 -9 18
-20 29 l-20 22 40 -8 c23 -4 41 -4 41 0 0 10 -85 32 -127 34 -31 1 -31 1 -12
-17 10 -10 19 -19 19 -21 0 -7 -40 6 -46 15 -3 5 -10 9 -15 9 -6 0 -8 -4 -5
-9 10 -16 -21 -6 -40 13 -18 18 -17 18 2 12 14 -4 21 -2 21 7 0 9 -11 13 -34
11 -19 -1 -32 1 -31 5 2 3 10 19 18 35 8 15 16 23 18 17 2 -7 -2 -18 -8 -26z
m200 25 c0 -5 -2 -10 -4 -10 -3 0 -8 5 -11 10 -3 6 -1 10 4 10 6 0 11 -4 11
-10z m602 -2 c-9 -9 -15 -9 -24 0 -9 9 -7 12 12 12 19 0 21 -3 12 -12z m-3602
-8 c0 -5 -11 -9 -25 -8 -14 1 -25 6 -25 10 0 4 11 8 25 8 14 0 25 -4 25 -10z
m280 0 c0 -5 -7 -10 -15 -10 -8 0 -15 5 -15 10 0 6 7 10 15 10 8 0 15 -4 15
-10z m420 3 c-8 -3 -18 -11 -22 -18 -9 -15 -50 -14 -55 2 -4 12 22 20 67 21
14 0 19 -2 10 -5z m530 -3 c0 -5 -4 -10 -9 -10 -6 0 -13 5 -16 10 -3 6 1 10 9
10 9 0 16 -4 16 -10z m80 -32 c0 -4 -7 -8 -15 -8 -10 0 -14 9 -13 26 2 23 4
24 15 8 7 -10 13 -21 13 -26z m1540 21 c0 -6 -4 -7 -10 -4 -5 3 -10 11 -10 16
0 6 5 7 10 4 6 -3 10 -11 10 -16z m277 15 c-3 -3 -12 -4 -19 -1 -8 3 -5 6 6 6
11 1 17 -2 13 -5z m547 0 c27 -10 18 -25 -11 -18 -37 9 -53 24 -26 24 12 0 28
-3 37 -6z m-3629 -14 c3 -5 -1 -10 -9 -10 -9 0 -16 5 -16 10 0 6 4 10 9 10 6
0 13 -4 16 -10z m285 0 c13 -8 13 -10 -2 -10 -9 0 -20 5 -23 10 -8 13 5 13 25
0z m1187 -15 c17 4 24 2 21 -6 -6 -19 -45 -21 -63 -3 -8 9 -12 20 -9 26 4 7
10 4 16 -7 7 -12 17 -15 35 -10z m-1724 -57 c-8 -15 -22 -27 -31 -27 -14 1
-14 2 1 6 10 3 16 11 13 18 -2 7 2 16 11 19 14 6 14 8 -1 24 -9 10 -16 22 -16
26 0 5 8 -2 18 -15 17 -20 17 -25 5 -51z m1629 53 c-10 -6 -2 -20 27 -52 22
-24 41 -47 41 -51 0 -12 -13 -9 -34 7 -11 8 -27 15 -36 15 -9 0 -25 9 -35 20
-11 12 -31 20 -52 20 -36 0 -42 10 -18 30 12 10 21 10 40 2 19 -9 24 -9 22 1
-1 6 6 11 15 9 9 -1 20 2 23 8 4 6 10 9 13 5 4 -3 1 -10 -6 -14z m-2266 -27
c-14 -16 -28 -25 -32 -22 -3 4 6 19 21 33 34 35 45 25 11 -11z m1229 26 c3 -5
1 -10 -4 -10 -6 0 -11 5 -11 10 0 6 2 10 4 10 3 0 8 -4 11 -10z m423 1 c8 -5
12 -17 10 -27 -2 -14 -13 -20 -41 -22 -43 -4 -51 17 -15 42 26 18 28 19 46 7z
m650 -16 c-3 -3 -9 2 -12 12 -6 14 -5 15 5 6 7 -7 10 -15 7 -18z m1872 5 c0
-11 -4 -20 -9 -20 -6 0 -9 9 -8 20 1 11 5 20 9 20 4 0 8 -9 8 -20z m140 6 c0
-8 -4 -18 -10 -21 -5 -3 -10 3 -10 14 0 12 5 21 10 21 6 0 10 -6 10 -14z
m-1235 -6 c3 -5 2 -10 -4 -10 -5 0 -13 5 -16 10 -3 6 -2 10 4 10 5 0 13 -4 16
-10z m915 -5 c7 -9 8 -15 2 -15 -5 0 -12 7 -16 15 -3 8 -4 15 -2 15 2 0 9 -7
16 -15z m115 5 c3 -5 2 -10 -4 -10 -5 0 -13 5 -16 10 -3 6 -2 10 4 10 5 0 13
-4 16 -10z m120 -9 c-3 -6 -11 -11 -16 -11 -5 0 -4 6 3 14 14 16 24 13 13 -3z
m-181 -7 c4 -10 1 -14 -6 -12 -15 5 -23 28 -10 28 5 0 13 -7 16 -16z m-3856
-19 c-3 -3 -9 2 -12 12 -6 14 -5 15 5 6 7 -7 10 -15 7 -18z m129 10 c0 -18
-19 -15 -25 3 -2 7 3 12 11 12 7 0 14 -7 14 -15z m411 6 c8 -5 0 -8 -22 -9
-19 -1 -38 3 -41 8 -7 12 45 13 63 1z m2517 -1 c8 -13 -5 -13 -25 0 -13 8 -13
10 2 10 9 0 20 -4 23 -10z m1095 6 c0 -3 -4 -8 -10 -11 -5 -3 -10 -1 -10 4 0
6 5 11 10 11 6 0 10 -2 10 -4z m67 -2 c-3 -3 -12 -4 -19 -1 -8 3 -5 6 6 6 11
1 17 -2 13 -5z m-1789 -34 c-3 -22 -1 -29 8 -26 8 3 12 -2 11 -13 -2 -30 -68
-23 -84 9 -7 14 -13 19 -13 12 0 -8 -6 -12 -12 -9 -7 2 -18 -3 -25 -12 -15
-21 -25 -9 -18 22 10 37 50 41 82 8 23 -24 24 -24 19 -4 -5 15 -1 25 11 32 25
15 26 14 21 -19z m1747 20 c-4 -7 3 -9 22 -5 24 5 25 5 10 -5 -10 -7 -25 -9
-33 -6 -16 6 -19 26 -3 26 5 0 7 -5 4 -10z m-3845 -10 c0 -5 -2 -10 -4 -10 -3
0 -8 5 -11 10 -3 6 -1 10 4 10 6 0 11 -4 11 -10z m240 5 c0 -2 -9 -9 -20 -15
-12 -6 -20 -7 -20 -1 0 5 8 12 18 14 9 3 18 5 20 6 1 0 2 -1 2 -4z m2604 -8
c16 -12 16 -14 -1 -34 -15 -17 -20 -18 -30 -7 -7 7 -9 15 -4 19 5 3 12 -1 14
-7 4 -9 6 -9 6 -1 1 6 -6 19 -15 27 -12 13 -13 16 -2 16 8 0 22 -6 32 -13z
m-3308 -4 c-3 -4 -17 -8 -29 -10 -17 -2 -19 -1 -7 7 17 11 47 14 36 3z m70 -9
c-3 -9 -6 -20 -6 -25 0 -17 -18 -9 -23 10 -6 23 0 31 21 31 9 0 12 -6 8 -16z
m454 6 c-19 -13 -30 -13 -30 0 0 6 10 10 23 10 18 0 19 -2 7 -10z m672 -8 c8
-8 8 -15 -2 -27 -16 -20 -30 -19 -30 1 0 9 -9 18 -20 21 -11 3 -20 9 -20 14 0
12 58 5 72 -9z m124 -9 c-7 -7 -26 7 -26 19 0 6 6 6 15 -2 9 -7 13 -15 11 -17z
m2225 10 c3 1 1 -2 -3 -8 -5 -5 -15 -2 -26 9 -16 18 -16 18 4 8 12 -6 23 -10
25 -9z m525 5 c2 -3 -2 -11 -11 -18 -12 -10 -16 -9 -21 4 -3 9 -10 13 -15 10
-5 -3 -17 0 -26 6 -14 9 -9 10 25 7 23 -3 45 -7 48 -9z m-3926 -13 c0 -2 -9
-3 -19 -2 -11 0 -18 5 -15 9 4 6 34 0 34 -7z m35 5 c-3 -5 -11 -10 -16 -10 -6
0 -7 5 -4 10 3 6 11 10 16 10 6 0 7 -4 4 -10z m912 -18 c10 -2 25 -4 33 -5 9
-1 16 -10 15 -23 0 -31 -11 -39 -29 -21 -8 8 -12 17 -9 21 3 3 -8 1 -26 -4
-19 -5 -31 -5 -31 1 0 5 7 9 15 9 20 0 19 16 -1 24 -8 3 -12 11 -8 17 5 8 9 7
14 -2 5 -7 17 -14 27 -17z m2336 -1 c2 -11 0 -24 -6 -30 -15 -15 -40 -14 -33
2 3 6 9 20 12 30 8 23 20 22 27 -2z m68 5 c8 -10 47 -17 116 -19 40 -2 49 -5
41 -14 -8 -10 -3 -13 18 -14 19 -1 22 -3 11 -6 -13 -3 -16 -10 -12 -21 26 -62
18 -64 -65 -22 -63 32 -88 36 -120 20 -11 -5 -28 -14 -38 -19 -13 -6 -25 -4
-41 9 l-24 17 22 6 c12 3 21 0 21 -6 0 -7 6 -5 13 4 7 8 21 21 32 28 l20 13
-20 -7 c-16 -5 -17 -4 -8 6 10 10 9 15 -5 26 -15 11 -15 13 8 10 14 -1 28 -6
31 -11z m719 4 c0 -5 -8 -10 -17 -10 -10 0 -29 -3 -43 -5 -22 -5 -21 -3 5 9
36 18 55 20 55 6z m-3850 -10 c0 -5 -5 -10 -11 -10 -5 0 -7 5 -4 10 3 6 8 10
11 10 2 0 4 -4 4 -10z m891 -22 c-18 -5 -36 -7 -39 -4 -3 3 2 6 11 6 10 0 16
3 16 8 -3 19 3 22 24 11 22 -12 21 -13 -12 -21z m2767 12 c7 -11 11 -20 9 -20
-2 0 -12 9 -22 20 -10 11 -14 20 -9 20 5 0 15 -9 22 -20z m-3548 6 c0 -2 -7
-6 -15 -10 -8 -3 -15 -1 -15 4 0 6 7 10 15 10 8 0 15 -2 15 -4z m103 -33 c20
-13 37 -28 37 -34 0 -6 -18 3 -39 20 -45 36 -48 36 -71 16 -15 -14 -19 -14
-31 2 -8 9 -9 14 -3 10 7 -4 17 0 24 8 13 16 29 12 83 -22z m187 33 c0 -7 -40
-14 -44 -7 -3 4 6 8 20 9 13 1 24 0 24 -2z m2485 -6 c-3 -5 -12 -10 -18 -10
-7 0 -6 4 3 10 19 12 23 12 15 0z m455 0 c0 -5 -4 -10 -9 -10 -6 0 -13 5 -16
10 -3 6 1 10 9 10 9 0 16 -4 16 -10z m-3305 -20 c-20 -22 -35 -26 -35 -9 0 5
5 7 12 3 8 -5 9 -2 5 9 -5 13 -1 17 15 17 20 0 21 -1 3 -20z m-125 -9 c0 -5
-9 -11 -20 -14 -11 -3 -20 -1 -20 3 0 5 8 11 18 13 9 3 18 5 20 6 1 0 2 -3 2
-8z m380 -1 c0 -5 -5 -10 -11 -10 -5 0 -7 5 -4 10 3 6 8 10 11 10 2 0 4 -4 4
-10z m1130 1 c0 -11 -39 -41 -52 -41 -13 0 -9 18 8 34 17 18 44 21 44 7z
m-1777 -18 c9 3 18 0 21 -8 3 -9 0 -12 -8 -9 -8 3 -17 1 -21 -5 -11 -19 -22
-12 -22 15 0 16 2 22 7 14 4 -7 15 -10 23 -7z m172 -1 c-3 -3 -11 0 -18 7 -9
10 -8 11 6 5 10 -3 15 -9 12 -12z m171 3 c10 -8 14 -15 8 -15 -5 0 -19 7 -30
15 -10 8 -14 15 -8 15 5 0 19 -7 30 -15z m358 -17 c-3 -4 0 -8 6 -8 6 0 9 -4
5 -10 -8 -13 -37 0 -31 15 2 7 -1 18 -7 25 -9 9 -6 9 10 -1 12 -7 19 -17 17
-21z m103 13 c11 -18 9 -21 -22 -31 -56 -18 -74 3 -27 32 34 22 35 22 49 -1z
m-397 -6 c10 -12 10 -15 -4 -15 -9 0 -16 7 -16 15 0 8 2 15 4 15 2 0 9 -7 16
-15z m3497 9 c-3 -3 -12 -4 -19 -1 -8 3 -5 6 6 6 11 1 17 -2 13 -5z m96 -27
c9 -4 17 -3 17 2 0 5 -10 11 -22 14 -12 4 -19 9 -16 13 4 3 22 -3 41 -15 19
-11 42 -21 51 -21 10 0 14 -4 11 -10 -3 -5 1 -10 9 -10 9 0 16 5 16 11 0 5 5
7 12 3 7 -4 8 -3 4 4 -4 7 -14 12 -22 12 -8 0 -14 5 -14 10 0 6 13 4 30 -5 20
-10 27 -20 23 -31 -5 -13 4 -15 58 -11 35 2 56 2 47 0 -10 -3 -18 -9 -18 -14
0 -6 9 -7 23 -3 35 12 60 10 63 -4 1 -7 0 -8 -3 -2 -7 16 -28 12 -53 -10 -20
-18 -21 -20 -5 -20 10 0 15 -3 11 -7 -4 -4 -35 -6 -69 -5 -45 2 -68 -1 -82
-12 -20 -16 -20 -16 8 -39 82 -67 76 -55 78 -147 1 -47 -1 -95 -4 -108 -8 -30
0 -49 24 -55 13 -3 17 -11 13 -21 -7 -18 -88 -23 -99 -7 -3 5 -10 32 -15 60
-7 38 -24 70 -70 130 -33 43 -60 84 -60 91 0 12 -24 40 -34 40 -3 0 -6 -7 -6
-15 0 -29 -36 -15 -53 20 -27 56 -23 64 31 67 46 3 47 4 46 36 -1 21 3 32 12
32 21 0 17 18 -5 25 -11 3 -22 13 -26 22 -5 15 -4 15 12 1 10 -8 26 -18 36
-21z m162 23 c3 -5 1 -10 -4 -10 -6 0 -11 5 -11 10 0 6 2 10 4 10 3 0 8 -4 11
-10z m-3955 -10 c0 -5 -5 -10 -11 -10 -5 0 -7 5 -4 10 3 6 8 10 11 10 2 0 4
-4 4 -10z m1415 0 c4 -6 -5 -10 -19 -10 -14 0 -26 5 -26 10 0 6 9 10 19 10 11
0 23 -4 26 -10z m-1359 -37 c-3 -3 -13 -2 -23 2 -10 5 -24 7 -30 6 -27 -4 -11
9 20 17 24 7 33 5 35 -6 2 -7 1 -16 -2 -19z m691 12 c-15 -6 -24 -15 -20 -19
5 -5 -2 -3 -15 3 -21 11 -24 10 -29 -7 -5 -21 -36 -34 -59 -25 -24 9 -16 19
35 42 30 15 56 21 70 16 13 -4 21 -2 21 5 0 6 5 8 12 4 8 -5 3 -12 -15 -19z
m3443 15 c0 -5 -2 -10 -4 -10 -3 0 -8 5 -11 10 -3 6 -1 10 4 10 6 0 11 -4 11
-10z m-4216 -9 c4 -5 -3 -7 -14 -4 -23 6 -26 13 -6 13 8 0 17 -4 20 -9z m489
-13 c7 -27 3 -32 -18 -24 -10 3 -13 11 -9 18 6 10 5 10 -8 0 -13 -10 -18 -9
-29 5 -9 11 -10 14 -2 9 7 -4 21 -2 30 3 26 15 30 14 36 -11z m3287 2 c0 -5
-7 -10 -15 -10 -8 0 -15 5 -15 10 0 6 7 10 15 10 8 0 15 -4 15 -10z m-3879
-13 c-6 -8 -7 -17 -3 -22 4 -4 -3 -2 -15 4 -26 13 -31 26 -8 17 8 -3 15 -1 15
4 0 6 5 10 11 10 8 0 9 -4 0 -13z m334 1 c-11 -6 -23 -16 -27 -22 -4 -6 -10
-7 -13 -4 -11 11 18 37 40 37 l20 0 -20 -11z m615 3 c0 -5 -11 -11 -25 -13
-24 -5 -32 2 -18 15 9 10 43 8 43 -2z m1212 0 c13 -6 57 -13 100 -16 92 -8
117 -21 97 -53 -19 -30 -36 -34 -69 -17 -16 8 -38 15 -50 15 -11 0 -31 7 -45
16 -14 9 -39 14 -62 12 -36 -3 -38 -4 -37 -38 1 -34 0 -35 -30 -32 -21 2 -43
-5 -69 -22 -21 -14 -44 -26 -51 -26 -13 0 -53 38 -45 43 2 2 15 9 29 15 72 37
94 50 109 70 9 11 32 25 51 30 47 13 46 13 72 3z m-2332 -16 c11 -13 10 -14
-4 -9 -9 3 -16 10 -16 15 0 13 6 11 20 -6z m289 -25 c0 -9 -2 -11 -5 -3 -3 7
-12 9 -19 7 -9 -4 -13 1 -12 14 1 16 4 18 19 8 10 -6 18 -18 17 -26z m556 10
c1 -11 -5 -20 -13 -20 -9 0 -12 6 -8 16 3 9 6 21 6 26 0 19 14 -1 15 -22z m45
22 c0 -5 -7 -9 -15 -9 -8 0 -12 4 -9 9 3 4 9 8 15 8 5 0 9 -4 9 -8z m-330 -21
c0 -3 -12 -14 -25 -24 -26 -18 -45 -16 -45 6 0 9 2 9 8 0 8 -13 34 -2 31 13
-1 5 -1 12 0 16 1 9 31 -1 31 -11z m246 4 c-11 -8 -22 -12 -25 -9 -6 6 19 24
34 24 6 -1 1 -7 -9 -15z m1948 7 c3 -5 -13 -22 -34 -38 -22 -16 -44 -43 -51
-61 -9 -27 -16 -33 -40 -33 -33 0 -36 13 -14 66 10 25 26 40 57 54 46 21 74
25 82 12z m688 -6 c16 -12 16 -14 -9 -25 -22 -10 -29 -9 -42 4 -14 14 -14 17
-1 25 20 13 32 12 52 -4z m-3092 -6 c0 -5 -8 -10 -17 -10 -15 0 -16 2 -3 10
19 12 20 12 20 0z m255 0 c3 -5 2 -10 -4 -10 -5 0 -13 5 -16 10 -3 6 -2 10 4
10 5 0 13 -4 16 -10z m-558 -6 c-3 -3 -12 -4 -19 -1 -8 3 -5 6 6 6 11 1 17 -2
13 -5z m373 -9 c7 -9 10 -18 6 -22 -8 -9 -56 14 -56 27 0 15 36 12 50 -5z
m-212 -22 c-7 -20 -18 -28 -34 -28 -15 0 -22 5 -19 13 7 20 -13 14 -25 -8 -7
-12 -16 -17 -27 -13 -12 5 -14 3 -8 -8 5 -9 5 -11 -2 -4 -6 6 -14 19 -17 31
-6 20 -2 21 56 23 35 1 67 6 72 11 15 15 15 13 4 -17z m502 11 c0 -2 -9 -4
-21 -4 -11 0 -18 4 -14 10 5 8 35 3 35 -6z m100 6 c0 -5 -5 -10 -11 -10 -5 0
-7 5 -4 10 3 6 8 10 11 10 2 0 4 -4 4 -10z m118 -3 c13 4 14 3 6 -6 -13 -14
-47 -3 -37 12 5 8 8 8 10 0 3 -7 12 -9 21 -6z m-598 -7 c13 -8 13 -10 -2 -10
-9 0 -20 5 -23 10 -8 13 5 13 25 0z m317 -12 c-3 -8 -6 -5 -6 6 -1 11 2 17 5
13 3 -3 4 -12 1 -19z m262 -15 c2 -1 -20 -2 -48 -1 -28 0 -51 2 -51 4 0 11 67
20 80 10 8 -6 17 -11 19 -13z m71 12 c-10 -12 -9 -15 4 -15 10 0 15 -4 12 -9
-4 -5 -18 -5 -35 2 -29 11 -29 11 -8 23 31 17 42 17 27 -1z m3455 5 c3 -5 2
-10 -4 -10 -5 0 -13 5 -16 10 -3 6 -2 10 4 10 5 0 13 -4 16 -10z m-4209 -27
c-2 -9 -8 -19 -14 -21 -14 -4 -15 0 -6 22 8 21 23 20 20 -1z m138 6 c-2 -4
-15 -9 -28 -11 -17 -4 -23 -1 -19 8 3 8 15 13 28 12 13 -1 22 -5 19 -9z m242
-1 c-1 -7 -5 -18 -9 -25 -4 -6 -1 -13 5 -16 7 -2 9 -8 5 -13 -12 -13 -25 14
-19 42 4 24 22 35 18 12z m125 2 c10 -6 19 -7 19 -2 0 4 11 8 24 8 14 0 22 -4
20 -8 -3 -5 -10 -6 -15 -3 -5 4 -9 1 -9 -5 0 -6 -4 -9 -9 -6 -5 3 -14 -1 -21
-9 -16 -19 -34 -20 -27 -1 3 7 0 19 -6 25 -14 14 -2 14 24 1z m-304 -6 c-3 -3
-12 -4 -19 -1 -8 3 -5 6 6 6 11 1 17 -2 13 -5z m-392 -24 c3 -5 1 -10 -4 -10
-6 0 -11 5 -11 10 0 6 2 10 4 10 3 0 8 -4 11 -10z m418 -10 c3 -11 1 -20 -4
-20 -5 0 -9 2 -9 4 0 2 -3 11 -6 20 -3 9 -2 16 4 16 5 0 12 -9 15 -20z m412
10 c3 -6 -1 -7 -9 -4 -18 7 -21 14 -7 14 6 0 13 -4 16 -10z m75 0 c0 -5 -2
-10 -4 -10 -3 0 -8 5 -11 10 -3 6 -1 10 4 10 6 0 11 -4 11 -10z m-771 -44 c-9
-8 -10 -7 -5 7 3 10 7 24 7 30 1 7 3 4 6 -7 3 -10 -1 -23 -8 -30z m666 34 c3
-5 -1 -10 -10 -10 -9 0 -13 5 -10 10 3 6 8 10 10 10 2 0 7 -4 10 -10z m265
-21 c-6 -10 -18 -19 -26 -19 -15 0 -13 10 9 37 14 19 29 5 17 -18z m-710 0 c0
-12 -47 -12 -55 0 -3 5 5 11 17 13 27 5 38 1 38 -13z m140 -20 c8 -14 5 -17
-15 -15 -14 0 -25 7 -25 14 0 7 5 10 11 6 8 -4 9 1 4 17 -5 19 -4 21 5 9 6 -8
15 -22 20 -31z m49 1 c6 0 11 -4 11 -10 0 -5 -3 -10 -7 -10 -11 0 -53 43 -53
54 1 6 9 1 19 -11 11 -13 24 -23 30 -23z m220 37 c-2 -1 -12 -9 -21 -16 -15
-12 -18 -11 -18 3 0 10 8 16 22 16 12 0 19 -1 17 -3z m-484 -17 c3 -5 -1 -10
-10 -10 -9 0 -13 5 -10 10 3 6 8 10 10 10 2 0 7 -4 10 -10z m-162 -23 c3 -8
-1 -14 -9 -14 -15 0 -18 9 -7 20 9 9 10 9 16 -6z m82 -7 c3 -5 1 -10 -4 -10
-6 0 -11 5 -11 10 0 6 2 10 4 10 3 0 8 -4 11 -10z m105 -5 c0 -8 -4 -15 -10
-15 -5 0 -10 7 -10 15 0 8 5 15 10 15 6 0 10 -7 10 -15z m130 6 c0 -5 -9 -7
-20 -4 -11 3 -20 7 -20 9 0 2 9 4 20 4 11 0 20 -4 20 -9z m160 5 c0 -3 -4 -8
-10 -11 -5 -3 -10 -1 -10 4 0 6 5 11 10 11 6 0 10 -2 10 -4z m3124 -64 c-12
-18 -84 -30 -84 -13 0 5 14 21 32 36 28 24 32 25 47 10 12 -12 13 -19 5 -33z
m-2998 -15 c4 -4 -4 -6 -19 -5 -14 1 -24 5 -21 9 5 9 31 6 40 -4z m-626 -27
c0 -5 -2 -10 -4 -10 -3 0 -8 5 -11 10 -3 6 -1 10 4 10 6 0 11 -4 11 -10z m200
-134 c0 -2 -7 -7 -16 -10 -8 -3 -12 -2 -9 4 6 10 25 14 25 6z m3803 -218 c16
-21 18 -30 8 -41 -22 -27 -58 -26 -86 3 -31 33 -31 36 3 54 35 20 51 17 75
-16z"/>
<path d="M1336 1698 c9 -43 22 -57 22 -22 0 15 -7 34 -14 42 -12 11 -13 8 -8
-20z"/>
<path d="M1270 1690 c0 -5 5 -10 11 -10 5 0 7 5 4 10 -3 6 -8 10 -11 10 -2 0
-4 -4 -4 -10z"/>
<path d="M1126 1657 c3 -10 9 -15 12 -12 3 3 0 11 -7 18 -10 9 -11 8 -5 -6z"/>
<path d="M1150 1631 c0 -11 4 -22 9 -25 4 -3 6 6 3 19 -5 30 -12 33 -12 6z"/>
<path d="M1460 1640 c0 -5 5 -10 11 -10 5 0 7 5 4 10 -3 6 -8 10 -11 10 -2 0
-4 -4 -4 -10z"/>
<path d="M1390 1621 c0 -6 4 -13 10 -16 6 -3 7 1 4 9 -7 18 -14 21 -14 7z"/>
<path d="M1501 1604 c0 -11 3 -14 6 -6 3 7 2 16 -1 19 -3 4 -6 -2 -5 -13z"/>
<path d="M1478 1573 c7 -3 16 -2 19 1 4 3 -2 6 -13 5 -11 0 -14 -3 -6 -6z"/>
<path d="M1521 1564 c0 -11 3 -14 6 -6 3 7 2 16 -1 19 -3 4 -6 -2 -5 -13z"/>
<path d="M238 1523 c7 -3 16 -2 19 1 4 3 -2 6 -13 5 -11 0 -14 -3 -6 -6z"/>
<path d="M868 1363 c7 -3 16 -2 19 1 4 3 -2 6 -13 5 -11 0 -14 -3 -6 -6z"/>
<path d="M930 1330 c0 -5 5 -10 11 -10 5 0 7 5 4 10 -3 6 -8 10 -11 10 -2 0
-4 -4 -4 -10z"/>
<path d="M955 1310 c-3 -5 -1 -10 4 -10 6 0 11 5 11 10 0 6 -2 10 -4 10 -3 0
-8 -4 -11 -10z"/>
<path d="M860 1210 c-9 -6 -10 -10 -3 -10 6 0 15 5 18 10 8 12 4 12 -15 0z"/>
<path d="M1100 1135 c0 -8 4 -15 10 -15 5 0 7 7 4 15 -4 8 -8 15 -10 15 -2 0
-4 -7 -4 -15z"/>
<path d="M1135 1110 c4 -6 1 -17 -5 -25 -6 -8 -9 -19 -5 -25 9 -14 28 -13 22
3 -2 6 3 21 12 31 9 11 10 16 4 12 -7 -4 -13 -2 -13 3 0 6 -5 11 -11 11 -5 0
-7 -5 -4 -10z"/>
<path d="M1105 1030 c3 -5 13 -10 21 -10 8 0 12 5 9 10 -3 6 -13 10 -21 10 -8
0 -12 -4 -9 -10z"/>
<path d="M1000 930 c-9 -6 -10 -10 -3 -10 6 0 15 5 18 10 8 12 4 12 -15 0z"/>
<path d="M1025 900 c-3 -5 -1 -10 4 -10 6 0 11 5 11 10 0 6 -2 10 -4 10 -3 0
-8 -4 -11 -10z"/>
<path d="M692 1314 c-12 -15 -21 -28 -19 -31 2 -2 10 3 17 12 7 8 18 15 25 15
6 0 12 7 12 15 0 21 -9 18 -35 -11z"/>
<path d="M484 1178 c-6 -10 14 -38 26 -38 4 0 15 11 23 23 15 23 14 24 -14 24
-17 0 -32 -4 -35 -9z"/>
<path d="M1507 1127 c-3 -9 -2 -19 4 -23 15 -9 18 -2 9 20 -6 17 -7 18 -13 3z"/>
<path d="M1770 1070 c0 -6 7 -10 15 -10 8 0 15 2 15 4 0 2 -7 6 -15 10 -8 3
-15 1 -15 -4z"/>
<path d="M1699 1051 l-23 -18 35 5 c19 3 28 7 21 9 -6 3 -10 9 -6 14 8 14 -2
11 -27 -10z"/>
<path d="M661 1184 c0 -11 3 -14 6 -6 3 7 2 16 -1 19 -3 4 -6 -2 -5 -13z"/>
<path d="M760 990 c0 -4 9 -10 20 -13 11 -3 20 -2 20 3 0 4 -9 10 -20 13 -11
3 -20 2 -20 -3z"/>
<path d="M3497 462 c-3 -4 -3 -19 0 -35 7 -33 35 -36 57 -5 14 19 14 23 -2 34
-19 15 -48 18 -55 6z"/>
<path d="M3910 881 c0 -5 5 -13 10 -16 6 -3 10 -2 10 4 0 5 -4 13 -10 16 -5 3
-10 2 -10 -4z"/>
<path d="M135 680 c3 -5 8 -10 11 -10 2 0 4 5 4 10 0 6 -5 10 -11 10 -5 0 -7
-4 -4 -10z"/>
<path d="M3650 2285 c0 -8 2 -15 4 -15 2 0 6 7 10 15 3 8 1 15 -4 15 -6 0 -10
-7 -10 -15z"/>
<path d="M3875 2289 c-4 -6 -5 -12 -2 -15 2 -3 7 2 10 11 7 17 1 20 -8 4z"/>
<path d="M3641 2123 c-1 -6 -4 -20 -7 -30 -5 -17 -5 -17 6 0 6 10 9 23 6 30
-3 9 -5 9 -5 0z"/>
<path d="M3621 2054 c0 -11 3 -14 6 -6 3 7 2 16 -1 19 -3 4 -6 -2 -5 -13z"/>
<path d="M2883 1980 c3 -14 11 -51 17 -82 7 -32 16 -58 20 -58 8 0 -27 151
-37 160 -3 3 -3 -6 0 -20z"/>
<path d="M3601 1990 c-1 -8 -4 -26 -7 -40 -5 -22 -4 -23 6 -7 6 10 9 28 7 40
-2 12 -5 15 -6 7z"/>
<path d="M3205 1970 c-3 -5 -1 -10 4 -10 6 0 11 5 11 10 0 6 -2 10 -4 10 -3 0
-8 -4 -11 -10z"/>
<path d="M2702 1950 c0 -14 2 -19 5 -12 2 6 2 18 0 25 -3 6 -5 1 -5 -13z"/>
<path d="M3622 1930 c0 -14 2 -19 5 -12 2 6 2 18 0 25 -3 6 -5 1 -5 -13z"/>
<path d="M2369 1908 c4 -28 6 -29 9 -9 2 13 0 27 -5 32 -6 6 -7 -3 -4 -23z"/>
<path d="M3372 1910 c0 -19 2 -27 5 -17 2 9 2 25 0 35 -3 9 -5 1 -5 -18z"/>
<path d="M3030 1921 c0 -6 4 -13 10 -16 6 -3 7 1 4 9 -7 18 -14 21 -14 7z"/>
<path d="M3133 1885 c0 -22 2 -30 4 -17 2 12 2 30 0 40 -3 9 -5 -1 -4 -23z"/>
<path d="M3556 1905 c-9 -26 -7 -32 5 -12 6 10 9 21 6 23 -2 3 -7 -2 -11 -11z"/>
<path d="M2670 1890 c5 -10 8 -19 7 -21 -1 -2 0 -3 2 -1 11 6 6 39 -5 39 -9 0
-10 -5 -4 -17z"/>
<path d="M3642 1885 c0 -16 2 -22 5 -12 2 9 2 23 0 30 -3 6 -5 -1 -5 -18z"/>
<path d="M2754 1873 c9 -18 18 -33 20 -33 9 0 -8 41 -22 52 -13 11 -12 8 2
-19z"/>
<path d="M2801 1890 c0 -8 4 -22 9 -30 12 -18 12 -2 0 25 -6 13 -9 15 -9 5z"/>
<path d="M2700 1881 c0 -6 4 -13 10 -16 6 -3 7 1 4 9 -7 18 -14 21 -14 7z"/>
<path d="M2830 1871 c5 -11 15 -23 21 -27 6 -3 3 5 -6 20 -20 30 -30 35 -15 7z"/>
<path d="M3030 1882 c0 -20 22 -72 31 -72 5 0 9 5 9 10 0 6 -4 10 -10 10 -5 0
-10 11 -10 24 0 14 -4 28 -10 31 -5 3 -10 2 -10 -3z"/>
<path d="M3170 1875 c0 -8 4 -15 10 -15 5 0 7 7 4 15 -4 8 -8 15 -10 15 -2 0
-4 -7 -4 -15z"/>
<path d="M3476 1873 c-6 -14 -5 -15 5 -6 7 7 10 15 7 18 -3 3 -9 -2 -12 -12z"/>
<path d="M2470 1872 c1 -18 17 -29 33 -23 17 6 16 8 -7 19 -14 6 -26 8 -26 4z"/>
<path d="M2541 1864 c0 -11 3 -14 6 -6 3 7 2 16 -1 19 -3 4 -6 -2 -5 -13z"/>
<path d="M2974 1858 c2 -16 -1 -25 -6 -21 -6 3 -5 -5 2 -17 10 -18 14 -20 21
-9 6 10 9 7 9 -11 0 -33 12 -51 27 -42 16 10 2 67 -16 67 -7 0 -19 14 -27 30
l-14 30 4 -27z"/>
<path d="M3060 1868 c0 -9 5 -20 10 -23 13 -8 13 5 0 25 -8 13 -10 13 -10 -2z"/>
<path d="M3421 1862 c-6 -12 -11 -27 -11 -34 1 -7 8 0 16 15 9 16 13 31 11 34
-3 2 -10 -4 -16 -15z"/>
<path d="M2560 1859 c0 -14 28 -41 33 -32 2 5 -4 16 -15 26 -10 9 -18 12 -18
6z"/>
<path d="M3291 1854 c0 -11 3 -14 6 -6 3 7 2 16 -1 19 -3 4 -6 -2 -5 -13z"/>
<path d="M2290 1853 c0 -4 5 -15 10 -23 8 -13 10 -13 10 2 0 9 -4 20 -10 23
-5 3 -10 3 -10 -2z"/>
<path d="M2401 1844 c0 -11 3 -14 6 -6 3 7 2 16 -1 19 -3 4 -6 -2 -5 -13z"/>
<path d="M2430 1835 c0 -15 -4 -24 -10 -20 -5 3 -10 2 -10 -4 0 -5 9 -9 19 -8
10 0 17 6 14 13 -2 7 1 15 8 20 7 4 10 3 5 -4 -3 -6 3 -16 14 -22 20 -11 21
-10 11 9 -7 11 -20 25 -31 31 -18 9 -20 8 -20 -15z"/>
<path d="M3240 1840 c0 -11 4 -20 9 -20 5 0 7 9 4 20 -3 11 -7 20 -9 20 -2 0
-4 -9 -4 -20z"/>
<path d="M3321 1844 c0 -11 3 -14 6 -6 3 7 2 16 -1 19 -3 4 -6 -2 -5 -13z"/>
<path d="M3260 1846 c0 -2 8 -10 18 -17 15 -13 16 -12 3 4 -13 16 -21 21 -21
13z"/>
<path d="M2845 1808 c5 -23 24 -40 37 -32 11 7 0 28 -22 41 -16 11 -18 10 -15
-9z"/>
<path d="M3955 1820 c-3 -6 1 -7 9 -4 18 7 21 14 7 14 -6 0 -13 -4 -16 -10z"/>
<path d="M2816 1805 c-3 -8 -1 -15 4 -15 6 0 10 7 10 15 0 8 -2 15 -4 15 -2 0
-6 -7 -10 -15z"/>
<path d="M3073 1803 c-16 -6 -17 -33 -1 -33 6 0 8 3 5 7 -4 3 -2 12 4 20 12
14 11 14 -8 6z"/>
<path d="M3250 1799 c0 -5 4 -8 9 -4 6 3 9 -4 8 -15 -1 -12 -6 -19 -14 -16 -7
3 -13 -1 -13 -8 0 -9 7 -12 20 -9 13 3 20 0 20 -8 0 -11 2 -11 13 0 10 11 10
14 0 18 -7 3 -13 16 -13 29 0 15 -6 24 -15 24 -8 0 -15 -5 -15 -11z"/>
<path d="M4445 1800 c17 -4 46 -8 65 -8 l35 0 -40 9 c-22 4 -51 8 -65 7 -23 0
-22 -1 5 -8z"/>
<path d="M3120 1786 c0 -9 5 -16 10 -16 6 0 10 4 10 9 0 6 -4 13 -10 16 -5 3
-10 -1 -10 -9z"/>
<path d="M4040 1739 c-13 -9 -12 -10 3 -5 9 3 28 1 42 -4 15 -6 26 -6 30 0 4
6 -3 10 -14 10 -10 0 -25 2 -33 5 -7 3 -20 0 -28 -6z"/>
<path d="M10 1460 c-12 -8 -9 -10 13 -10 16 0 26 4 22 10 -8 12 -16 12 -35 0z"/>
<path d="M50 1309 c0 -5 5 -7 10 -4 6 3 10 8 10 11 0 2 -4 4 -10 4 -5 0 -10
-5 -10 -11z"/>
<path d="M10 1240 c-12 -7 -10 -9 7 -7 12 0 19 5 17 9 -6 10 -6 10 -24 -2z"/>
<path d="M206 1047 c3 -10 9 -15 12 -12 3 3 0 11 -7 18 -10 9 -11 8 -5 -6z"/>
<path d="M160 1030 c0 -5 10 -10 23 -10 18 0 19 2 7 10 -19 13 -30 13 -30 0z"/>
</g>
</svg>
